<?xml version="1.0" encoding="UTF-8" standalone="no"?>
<!-- Created with Inkscape (http://www.inkscape.org/) -->

<svg
   width="793.70081"
   height="1122.5197"
   viewBox="0 0 210 296.99999"
   version="1.1"
   id="svg1"
   xml:space="preserve"
   inkscape:version="1.4.3 (0d15f75, 2025-12-25)"
   sodipodi:docname="logo-useful.svg"
   xmlns:inkscape="http://www.inkscape.org/namespaces/inkscape"
   xmlns:sodipodi="http://sodipodi.sourceforge.net/DTD/sodipodi-0.dtd"
   xmlns:xlink="http://www.w3.org/1999/xlink"
   xmlns="http://www.w3.org/2000/svg"
   xmlns:svg="http://www.w3.org/2000/svg"><sodipodi:namedview
     id="namedview1"
     pagecolor="#ffffff"
     bordercolor="#000000"
     borderopacity="0.25"
     inkscape:showpageshadow="2"
     inkscape:pageopacity="0.0"
     inkscape:pagecheckerboard="true"
     inkscape:deskcolor="#d1d1d1"
     inkscape:document-units="mm"
     inkscape:zoom="1.4378368"
     inkscape:cx="400.25406"
     inkscape:cy="660.36704"
     inkscape:window-width="1920"
     inkscape:window-height="1009"
     inkscape:window-x="972"
     inkscape:window-y="1080"
     inkscape:window-maximized="1"
     inkscape:current-layer="svg1"
     labelstyle="default" /><defs
     id="defs1"><linearGradient
       id="linearGradient8"
       inkscape:collect="always"><stop
         style="stop-color:#3e4f75;stop-opacity:1;"
         offset="0"
         id="stop8" /><stop
         style="stop-color:#5ad2f4;stop-opacity:1;"
         offset="0.27089342"
         id="stop10" /><stop
         style="stop-color:#5ad2f4;stop-opacity:1;"
         offset="0.71469742"
         id="stop11" /><stop
         style="stop-color:#3e4f75;stop-opacity:1;"
         offset="1"
         id="stop9" /></linearGradient><linearGradient
       id="linearGradient14"
       inkscape:collect="always"><stop
         style="stop-color:#5ad2f4;stop-opacity:1;"
         offset="0"
         id="stop2" /><stop
         style="stop-color:#3e4f75;stop-opacity:1;"
         offset="1"
         id="stop16" /></linearGradient><radialGradient
       inkscape:collect="always"
       xlink:href="#linearGradient14"
       id="radialGradient2"
       cx="106.26794"
       cy="155.53708"
       fx="106.26794"
       fy="155.53708"
       r="102.92419"
       gradientTransform="matrix(1,0,0,0.41474826,0,91.02835)"
       gradientUnits="userSpaceOnUse"
       spreadMethod="reflect" /><pattern
       id="EMFhbasepattern"
       patternUnits="userSpaceOnUse"
       width="6"
       height="6"
       x="0"
       y="0" /><linearGradient
       inkscape:collect="always"
       xlink:href="#linearGradient8"
       id="linearGradient10"
       x1="7.8883896"
       y1="202.99242"
       x2="199.98627"
       y2="202.99242"
       gradientUnits="userSpaceOnUse" /></defs><path
     style="fill:url(#radialGradient2);stroke:#010028;stroke-width:0.499999;stroke-linecap:round;stroke-linejoin:round;stroke-opacity:1"
     d="m 37.734266,187.76051 c 4.64215,-3.46271 9.613111,-6.71724 15.486745,-7.44201 4.442685,-0.87685 9.2088,0.0161 13.480812,-1.64998 -4.068691,-0.99889 -0.213767,-0.32943 1.984301,-0.84581 3.689461,-0.50159 -3.726398,-1.50727 1.643204,-0.97891 0.917839,0.0188 4.603942,-0.16861 3.752672,-0.8998 -2.90232,-0.24891 -3.610035,-0.60949 -0.197549,-0.815 2.747185,-0.57217 7.07252,-1.32475 8.187621,2.06755 -1.534986,2.53135 -5.411692,3.91986 -6.708885,6.77348 -0.916586,0.93706 -2.318242,3.52549 -1.700677,4.81632 3.08538,-2.74529 4.998414,-4.35608 3.174449,0.52895 -0.335066,1.08498 -1.117381,3.81178 0.144232,5.37398 1.296909,-1.66858 1.978024,-5.39487 5.190532,-4.05607 3.167547,2.71138 1.41238,4.98954 3.283413,7.34152 1.583029,-2.13337 1.509562,-5.86379 4.87943,-6.0505 2.994211,-0.52015 1.393924,5.17372 3.083832,5.02385 1.998417,-1.92391 0.650098,-6.29042 4.073518,-6.73205 1.653936,2.12142 2.371784,4.91506 2.447602,0.38268 0.171842,-3.92572 -1.988528,-7.32496 -3.521927,-10.77547 2.601372,-1.56199 4.809249,-4.01089 5.399899,-7.05891 -0.54222,4.89369 0.0845,1.36274 2.23169,-0.18382 2.54603,-0.60453 5.19207,-0.44796 7.78744,-0.62942 -3.91915,-1.94969 0.82562,-0.19689 2.80601,-0.22257 3.33156,0.0544 6.76882,0.15509 10.0045,-0.75577 -3.28943,-0.0548 -4.66377,-1.31574 -0.49705,-0.57506 1.69426,0.0822 5.9092,-0.37895 5.91772,-0.97912 -2.85715,0.41779 -4.95292,-0.91014 -0.8893,-0.40098 2.90526,0.0727 6.1253,-1.79334 8.78635,-0.71461 0.89126,0.88753 5.29823,3.44524 4.11769,2.11772 -2.78257,-3.07095 -0.44443,-0.71757 1.53705,0.24471 4.81783,2.46969 -0.0933,-1.78156 0.86685,-0.96474 3.18342,2.06296 7.24708,0.92043 10.63815,1.84712 1.53928,4.50705 2.74443,9.88505 6.78442,12.82163 1.37523,-0.30846 -2.13941,-5.55495 1.74717,-3.29376 1.7015,0.77709 3.18039,4.4914 4.69118,3.83213 -0.48321,-2.40904 -1.14477,-5.27058 2.5105,-4.84927 1.79998,-0.37812 4.18638,4.93386 4.8993,2.23699 -0.48831,-2.16854 -3.31797,-4.46426 -0.84576,-6.37579 1.42975,1.11965 5.43371,4.15799 3.48066,0.35782 -1.68476,-2.26948 -3.03422,-4.53366 -5.15909,-6.4131 -0.95684,-0.912 -3.22747,-2.43179 -4.66746,-3.13085 -0.8905,-0.43231 -2.86826,-1.28134 -4.5811,-1.70079 0.82271,-2.35275 4.07575,-0.16991 6.678,-0.0261 7.55818,0.50662 15.34955,-1.04814 22.01317,-4.63806 7.68706,-4.62619 13.71626,-12.27639 15.2148,-21.25355 1.49261,-5.87236 2.23078,-13.95051 -3.69776,-17.60454 -4.90032,-1.81853 -8.87932,3.0367 -11.24215,6.75431 -4.33371,6.56044 -9.09548,13.59666 -16.93283,16.20811 -5.40588,1.91121 -11.75958,1.86678 -16.77871,-1.19328 -3.68483,-1.45678 -5.85646,-4.81931 -8.43198,-7.63152 0.71663,1.2212 6.61287,3.71319 4.17423,1.91526 -3.91003,-2.71158 -6.90367,-6.75294 -11.33073,-8.71393 1.7934,0.0378 6.97903,3.93364 3.35729,0.77663 -3.15427,-3.0292 -6.91297,-5.58365 -10.93667,-7.18495 3.7857,1.2441 4.30044,0.60048 0.52925,-1.11554 -2.76618,-1.2723 -5.58387,-2.59529 -8.59498,-3.0961 3.86063,0.0949 4.16617,0.065 0.29687,-1.13438 -3.55619,-1.07766 -7.20563,-1.80782 -10.85472,-2.49991 3.70121,-0.71257 -2.88192,-0.41333 -4.17961,-0.73641 -3.30596,-0.0362 -6.71929,-0.33098 -9.92153,0.67776 2.96326,-1.57476 5.34999,-1.51206 0.60645,-1.36947 -5.586735,0.27136 -11.114294,1.65583 -16.253158,3.80922 3.286155,-3.04606 -0.580095,-0.94649 -2.50689,0.0699 -4.011333,1.88096 -7.756445,4.63545 -11.913621,5.96563 -3.351675,0.1122 -6.76524,0.95051 -9.228465,3.36551 1.521518,-1.81828 4.453662,-4.54564 0.585531,-1.95178 -1.338387,0.6477 -4.582188,4.59602 -4.177813,3.23809 -0.07148,-1.1135 -3.107501,3.32111 -5.035138,3.64798 -4.324738,0.61567 -9.049255,-0.75948 -13.076824,1.43216 1.906317,-2.51921 -3.336434,0.8208 -4.547096,1.18039 -2.003052,0.62645 -5.109712,4.89129 -3.144052,0.82313 -1.011292,-1.36788 -2.78689,4.56694 -3.600288,3.81194 -1.524355,-0.83781 -3.104709,3.45586 -4.257738,4.86453 -1.952106,2.95282 -2.751389,6.52656 -3.221468,9.89614 -1.517494,2.06498 0.398385,5.39761 -2.301465,6.75801 -0.963151,2.37573 -1.861942,4.36806 -4.799193,4.3981 -4.115526,1.03465 -9.0526108,2.80164 -11.2059147,6.44686 -0.9943874,1.17127 -3.211268,5.0769 -0.00179,2.95972 3.6719624,-3.23604 -0.3520748,1.58091 -0.1495125,3.22026 0.8967294,-1.1891 5.1289142,-3.84735 3.5837455,-1.54913 -2.6108579,1.33865 -4.4917707,5.149 -1.5640292,7.20528 2.2204237,1.07399 4.8186829,-0.30031 7.2079039,1e-5 -2.543671,1.41819 -3.272006,5.3601 -0.219581,6.6035 7.414046,4.07973 16.542152,2.47419 23.60832,-1.60212 z"
     id="path1"
     sodipodi:nodetypes="scccccccccccccccccccccccccccccccccccccccsccccccccccccccccccccccccccccccccccccccccccss"
     inkscape:label="body" /><g
     id="g2"
     inkscape:label="pico-0-5"
     style="display:inline"><path
       style="display:inline;fill:none;stroke:#010028;stroke-width:0.499999;stroke-linecap:round;stroke-linejoin:round;stroke-opacity:1"
       d="m 14.312998,182.76674 c 1.610711,0.0679 3.225108,-0.0746 4.745015,0.50127 2.178908,0.71366 4.327256,1.5455 6.598097,1.92928 2.967719,0.79514 6.025197,1.73933 9.128383,1.19355 1.444527,-0.0622 2.797532,-0.68306 4.148478,-1.15636 1.61121,-0.80914 3.203618,-1.67154 4.537507,-2.90193 2.181649,-1.57558 4.055156,-3.51622 5.72347,-5.61903 0.990021,-1.08537 1.838509,-2.51333 3.331489,-2.92908 0.440564,-0.0174 0.824812,0.27551 1.213363,0.44378"
       id="path11"
       sodipodi:nodetypes="ccccccccc"
       inkscape:label="pico-0" /><path
       style="display:inline;fill:none;stroke:#010028;stroke-width:0.499999;stroke-linecap:round;stroke-linejoin:round;stroke-opacity:1"
       d="m 8.752207,175.53868 2.21968,-1.11559 1.564126,-0.80506 1.771143,-1.05809 2.300186,-1.40311 2.116171,-1.33411 2.024163,-1.58713 1.334108,-1.2651 1.426115,-1.63313 1.137775,-1.67471 1.254419,-1.59155 1.564125,-1.51813 1.909157,-1.2421 1.748139,-0.69005 1.932156,-0.23002 1.909154,0.32202 1.702139,0.87407 1.794145,1.31111 1.288103,1.2421 1.380111,1.33411 1.288106,1.2651 1.219097,1.08109 1.336899,1.01718 1.170305,0.73096 1.150091,0.59805 1.357112,0.66705 1.357108,0.57505 1.679136,0.89707 1.472118,0.98908 0.966078,1.01208 0.598049,0.75906 0.34503,0.98908 -0.02299,0.80507 -0.36803,0.92007 -0.828066,0.85107 -1.150094,1.01208 -1.12709,0.92008 -1.150094,0.89707 -1.2421,0.75906 -0.920075,0.50604 -1.196096,0.80507 -1.170753,0.91939"
       id="path2"
       sodipodi:nodetypes="cccccccccccccccccccccccccccccccccccccccccc"
       inkscape:label="pico-2" /><path
       style="fill:none;stroke:#010028;stroke-width:0.499999;stroke-linecap:round;stroke-linejoin:round;stroke-opacity:1"
       d="m 33.570486,186.53252 c -2.932584,1.31995 -6.136672,2.0242 -9.353415,2.03872 -1.956753,0.0738 -3.92116,-0.0892 -5.827835,-0.54171 -1.370365,-0.26466 -2.889732,-0.55658 -3.864737,-1.64147 -0.496112,-0.89643 0.276811,-1.81791 0.91756,-2.3948 0.368304,-0.37027 0.734437,-0.74294 1.08699,-1.12834"
       id="path12"
       inkscape:label="labio" /></g><g
     id="g1"
     style="display:inline"
     inkscape:label="rellenos"><path
       style="fill:#010028;fill-opacity:1;stroke:none;stroke-width:0.1;stroke-linecap:round;stroke-linejoin:round;stroke-dasharray:none;stroke-opacity:1"
       d="m 132.58271,147.02788 2.4152,-0.89707 1.3111,-0.96608 1.28811,-0.96608 1.3111,-1.31111 0.71306,-1.21909 -0.59805,1.47212 -0.55204,0.80506 -1.31111,1.1961 -1.49512,1.12709 -1.44912,0.50604 z"
       id="path64" /><path
       style="fill:#010028;fill-opacity:1;stroke:none;stroke-width:0.1;stroke-linecap:round;stroke-linejoin:round;stroke-dasharray:none;stroke-opacity:1"
       d="m 133.20376,148.98304 c 0.41755,-0.37443 0.78739,-0.80927 1.23904,-1.14098 0.72146,-0.51318 1.55314,-0.83557 2.39526,-1.0902 -0.34543,0.53285 -0.63163,1.10845 -1.01887,1.6114 -0.61458,0.71326 -1.2128,1.46279 -2.01544,1.97607 -0.64251,0.42776 -1.35739,0.74819 -2.0907,0.986 -0.37072,0.0964 -0.73891,0.2023 -1.1085,0.30292 0.64879,-0.26081 1.34745,-0.42128 1.92434,-0.83196 0.58785,-0.36719 1.20355,-0.70471 1.68969,-1.20736 0.51088,-0.45111 1.00842,-0.91722 1.43156,-1.45348 0.23118,-0.26717 0.43381,-0.55672 0.64588,-0.83877 -0.85338,0.057 -1.53993,0.62973 -2.2248,1.08308 -0.28973,0.20027 -0.5784,0.40206 -0.86746,0.60328 z"
       id="path65" /><path
       style="fill:#010028;fill-opacity:1;stroke:none;stroke-width:0.1;stroke-linecap:round;stroke-linejoin:round;stroke-dasharray:none;stroke-opacity:1"
       d="m 53.446034,132.23258 c 0.933288,-0.16635 1.882922,-0.26172 2.830547,-0.18731 1.308973,0.0245 2.618284,0.0823 3.920282,0.21992 1.156817,0.0437 2.304326,-10e-4 3.46951,-0.1607 0.261948,-0.0288 0.545786,-0.006 0.268649,0.23786 -0.548477,0.43089 -0.932862,0.64266 -1.448779,0.8982 -0.776705,0.29711 -1.610615,0.53952 -2.448717,0.47679 -0.130648,-0.0122 -0.60519,-0.0977 -0.200246,-0.0892 0.64344,-0.006 1.288529,-0.13602 1.890664,-0.35538 0.414887,-0.24286 0.901229,-0.39979 1.216646,-0.78202 -0.658609,0.17184 -1.342268,0.18692 -2.017707,0.14663 -1.19815,-0.0284 -2.671299,-0.13222 -3.840101,-0.26613 -1.03934,-0.0714 -0.849739,-0.0608 -1.875528,-0.12064 -0.259758,-0.0241 -1.506342,0.0133 -1.76522,-0.018 z"
       id="path40"
       sodipodi:nodetypes="ccccccccccccccc" /><path
       style="fill:#010028;fill-opacity:1;stroke:none;stroke-width:0.1;stroke-linecap:round;stroke-linejoin:round;stroke-dasharray:none;stroke-opacity:1"
       d="m 59.854353,134.23315 c 0.647193,0.0239 1.312081,-0.10373 1.938955,0.10294 0.652917,0.12847 1.283987,0.33106 1.891749,0.60094 0.846552,0.3339 1.653708,0.75927 2.516035,1.05438 0.638728,0.25607 1.245866,0.59085 1.860872,0.89081 0.150235,0.0434 0.625583,0.12438 0.204497,0.0982 -0.618553,0.08 -1.187592,-0.19896 -1.755117,-0.39992 -0.90461,-0.37485 -1.777281,-0.83295 -2.726758,-1.0911 -0.736764,-0.20114 -1.452451,-0.46937 -2.127714,-0.8269 -0.588448,-0.20041 -1.213331,-0.23467 -1.802519,-0.42938 z"
       id="path41" /><path
       style="fill:#010028;fill-opacity:1;stroke:none;stroke-width:0.1;stroke-linecap:round;stroke-linejoin:round;stroke-dasharray:none;stroke-opacity:1"
       d="m 64.977758,137.89272 c 0.713298,0.24815 1.431196,0.48517 2.119165,0.79901 0.365321,0.1294 0.677101,0.36542 1.025865,0.52707 0.712219,0.26403 1.436179,0.51207 2.189814,0.62573 -0.771256,-0.40179 -1.578497,-0.72555 -2.370164,-1.08318 -0.60308,-0.31395 -1.263147,-0.50189 -1.920269,-0.66551 -0.348132,-0.0677 -0.696312,-0.13538 -1.044411,-0.20312 z"
       id="path42" /><path
       style="fill:#010028;fill-opacity:1;stroke:none;stroke-width:0.1;stroke-linecap:round;stroke-linejoin:round;stroke-dasharray:none;stroke-opacity:1"
       d="m 61.944006,136.125 c 0.741742,0.11893 1.487184,0.23441 2.218888,0.40149 0.704992,0.17649 1.365617,0.48127 2.045084,0.73053 0.621703,0.20002 1.275987,0.25733 1.925928,0.26781 0.354215,-0.0517 0.700998,-0.008 1.009535,0.18197 0.168156,0.0893 0.79422,0.43006 0.244329,0.28567 -0.367711,-0.0708 -0.724831,-0.32986 -1.108458,-0.14422 -0.528693,0.15153 -1.079547,0.038 -1.60903,-0.0515 -0.623388,-0.12688 -1.263021,-0.27512 -1.817797,-0.59186 -0.836077,-0.65567 -1.908276,-0.82286 -2.908479,-1.07989 z"
       id="path43" /><path
       style="fill:#010028;fill-opacity:1;stroke:none;stroke-width:0.1;stroke-linecap:round;stroke-linejoin:round;stroke-dasharray:none;stroke-opacity:1"
       d="m 161.24893,179.85583 c -0.85199,-2.36843 -1.84345,-4.69078 -2.50477,-7.12397 0.91329,2.01305 1.88907,4.01069 2.55763,6.1218 0.0713,0.45526 0.31272,1.28387 0.28642,1.53876 -0.12228,-0.17277 -0.20719,-0.37106 -0.33928,-0.53659 z"
       id="path99" /><path
       style="fill:#010028;fill-opacity:1;stroke:none;stroke-width:0.1;stroke-linecap:round;stroke-linejoin:round;stroke-dasharray:none;stroke-opacity:1"
       d="m 159.36222,173.41498 1.1548,2.29333 1.04094,2.00057 1.20359,1.90298 0.63433,0.99215 0.47168,0.53674 0.30903,0.21144 -0.73192,-1.13854 -1.15479,-1.88671 -0.78071,-1.30118 z"
       id="path100" /><path
       style="fill:#010028;fill-opacity:1;stroke:none;stroke-width:0.1;stroke-linecap:round;stroke-linejoin:round;stroke-dasharray:none;stroke-opacity:1"
       d="m 166.90907,180.24618 -1.39877,-3.38307 -1.23612,-2.09816 -1.44757,-2.43971 -0.32529,-0.45541 1.48009,1.82165 1.30118,2.04936 0.91083,1.65901 0.76445,1.75659 0.71565,1.65901 z"
       id="path101" /><path
       style="fill:#010028;fill-opacity:1;stroke:none;stroke-width:0.1;stroke-linecap:round;stroke-linejoin:round;stroke-dasharray:none;stroke-opacity:1"
       d="m 163.67238,172.97583 2.34213,2.24454 2.19574,1.87045 1.64274,1.48009 1.33372,1.12227 0.2277,0.22771 v -0.68312 l -1.72406,-1.23613 -2.45598,-2.00056 z"
       id="path102" /><path
       style="fill:#010028;fill-opacity:1;stroke:none;stroke-width:0.1;stroke-linecap:round;stroke-linejoin:round;stroke-dasharray:none;stroke-opacity:1"
       d="m 173.2198,177.90406 -0.32529,-0.82951 -0.89457,-1.21986 -2.50477,-2.45598 -1.69154,-1.54515 -1.07347,-0.8295 -0.81324,-0.56927 1.7566,1.04095 1.44756,1.13853 1.21986,1.05721 1.1548,1.13853 1.02468,1.10601 1.05721,1.39877 0.26023,0.45541 -0.2765,0.24397 z"
       id="path103" /><path
       style="fill:#010028;fill-opacity:1;stroke:none;stroke-width:0.1;stroke-linecap:round;stroke-linejoin:round;stroke-dasharray:none;stroke-opacity:1"
       d="m 164.76212,169.26746 3.04151,1.96804 1.96804,1.12227 3.43187,2.16321 1.28491,0.92709 -1.18732,-1.07347 -1.78913,-1.26865 -1.39877,-0.94336 -2.24454,-1.18733 z"
       id="path104" /><path
       style="fill:#010028;fill-opacity:1;stroke:none;stroke-width:0.1;stroke-linecap:round;stroke-linejoin:round;stroke-dasharray:none;stroke-opacity:1"
       d="m 69.727068,143.17877 c 1.169728,0.42713 2.407044,0.63587 3.64968,0.6698 1.290369,0.0536 2.652452,0.14598 3.865559,-0.37904 0.296209,-0.25473 0.337785,-0.13988 0.21945,0.19078 -0.290789,0.89864 -1.133421,1.51008 -1.99328,1.81196 -0.576337,0.18568 -1.189476,0.13383 -1.780696,0.20216 0.26518,0.19706 0.969779,0.28702 1.404299,0.18104 0.92542,-0.13164 1.842535,-0.32764 2.747432,-0.56517 0.06268,0.50634 -0.511782,0.73486 -0.832454,1.01035 -0.629223,0.43377 -1.329563,0.83215 -2.109118,0.88153 -0.171814,0.25356 0.596748,0.10184 0.760441,0.17031 0.563126,0.0585 1.163835,-0.0943 1.696093,-0.1038 -1.349557,0.4047 -2.85883,0.49086 -4.175894,-0.0779 -0.0052,-0.29405 0.64017,-0.0689 0.88534,-0.19145 0.746499,-0.10837 1.551498,-0.0809 2.217571,-0.48206 0.54444,-0.37603 -0.245005,-0.64198 -0.596408,-0.52964 -0.458024,-0.0242 -0.919278,0.1093 -1.370998,0.0707 -0.547122,-0.19427 -1.187369,-0.28329 -1.57988,-0.75594 1.041448,0.0171 2.160837,0.10914 3.103775,-0.42302 0.460688,-0.10391 0.394612,-0.66528 -0.103601,-0.42171 -1.867364,0.12166 -3.789805,-0.12281 -5.493939,-0.92498 -0.179709,-0.0971 -0.352423,-0.20855 -0.513372,-0.33386 z"
       id="path48" /><path
       style="fill:#010028;fill-opacity:1;stroke:none;stroke-width:0.1;stroke-linecap:round;stroke-linejoin:round;stroke-dasharray:none;stroke-opacity:1"
       d="m 75.99814,151.95028 c 0.748156,0.50558 1.45689,1.08737 2.293302,1.44567 0.25573,0.26105 0.650734,0.27722 0.993806,0.27386 0.199482,-6.7e-4 0.398342,-0.0317 0.597776,-0.0221 -0.390222,0.1942 -0.77962,0.46851 -1.234577,0.45109 -0.181692,0.004 -0.333178,-0.10512 -0.496396,-0.15888 -0.847584,-0.21145 -1.642621,-0.76908 -2.002998,-1.58212 -0.06411,-0.13097 -0.0911,-0.27523 -0.150913,-0.40752 z"
       id="path33" /><path
       style="fill:#010028;fill-opacity:1;stroke:none;stroke-width:0.1;stroke-linecap:round;stroke-linejoin:round;stroke-dasharray:none;stroke-opacity:1"
       d="m 76.550186,153.83643 c 1.180764,0.92007 2.361522,1.84015 3.542286,2.76022 0.176677,0.0826 0.768599,0.30534 0.252402,0.27417 -0.572408,0.0381 -1.06353,-0.34231 -1.506298,-0.65375 -0.628881,-0.50757 -1.198678,-1.08082 -1.703324,-1.71206 -0.190486,-0.22685 -0.392211,-0.4438 -0.585066,-0.66858 z"
       id="path34" /><path
       style="fill:#010028;fill-opacity:1;stroke:none;stroke-width:0.1;stroke-linecap:round;stroke-linejoin:round;stroke-dasharray:none;stroke-opacity:1"
       d="m 76.205158,156.50465 c 0.754568,0.24291 1.540641,0.40183 2.256315,0.75303 0.37318,0.16962 0.788158,0.19124 1.172244,0.32709 0.104619,0.0229 0.534934,0.18676 0.272864,0.0461 -0.381297,-0.24467 -0.74689,-0.54659 -1.203764,-0.63377 -0.486775,-0.18236 -0.891001,-0.56225 -1.419057,-0.63677 -0.321774,-0.10107 -0.659647,-0.12483 -0.99462,-0.10869 -0.281015,0 -0.56203,0 -0.843045,0 0.661882,0.60422 1.319605,1.2164 2.046106,1.74357 0.497934,0.38482 1.030924,0.72046 1.555025,1.06774 0.472949,0.16996 0.927393,0.43168 1.441641,0.448 0.272806,0.0367 0.546806,0.0697 0.822324,0.0747 -0.419492,-0.14017 -0.868003,-0.19404 -1.273891,-0.37146 -0.590262,-0.37833 -1.195192,-0.74025 -1.730904,-1.19531 -0.340631,-0.21682 -0.74888,-0.29287 -1.094313,-0.50019 -0.48651,-0.20028 -0.843482,-0.60325 -1.238585,-0.93466 -0.117369,-0.14578 0.170634,-0.0585 0.23166,-0.0794 z"
       id="path35" /><path
       style="fill:#010028;fill-opacity:1;stroke:none;stroke-width:0.1;stroke-linecap:round;stroke-linejoin:round;stroke-dasharray:none;stroke-opacity:1"
       d="m 76.803207,160.52997 c 1.252237,-0.0703 2.53723,0.0712 3.750213,-0.31997 0.577264,-0.14898 1.148918,-0.32409 1.70069,-0.55099 -0.730187,1.00428 -2.065368,1.16891 -3.211885,1.27081 -0.705672,0.0588 -1.470821,0.11403 -2.119942,-0.21889 l -0.07562,-0.0755 z"
       id="path36" /><path
       style="fill:#010028;fill-opacity:1;stroke:none;stroke-width:0.1;stroke-linecap:round;stroke-linejoin:round;stroke-dasharray:none;stroke-opacity:1"
       d="m 77.033225,162.64614 c 0.920923,-0.19527 1.854563,-0.43408 2.663132,-0.93373 0.317691,-0.15856 0.597574,-0.37818 0.900385,-0.55998 -0.199397,0.28941 -0.589182,0.72727 -0.979767,0.93408 -0.530218,0.35873 -1.106243,0.67074 -1.74443,0.77881 -0.2952,0.0324 -0.794848,0.2344 -0.83932,-0.21918 z"
       id="path37" /><path
       style="fill:#010028;fill-opacity:1;stroke:none;stroke-width:0.1;stroke-linecap:round;stroke-linejoin:round;stroke-dasharray:none;stroke-opacity:1"
       d="m 72.478857,173.43401 c 0.802027,-0.11423 1.649337,-0.12366 2.378867,-0.5191 0.723966,-0.27484 1.318829,-0.79901 2.038277,-1.08338 0.43265,-0.199 0.859357,-0.42223 1.229994,-0.72437 -0.151346,-0.31001 -0.543085,-0.33386 -0.845138,-0.35208 -0.815369,-0.0278 -1.643645,-0.12493 -2.451123,0.0388 -0.216788,0.0753 -0.528071,0.073 -0.635563,0.30971 0.0028,0.24537 0.365349,0.20268 0.541081,0.21816 0.297703,-0.001 0.586812,-0.0769 0.883636,-0.0934 0.586101,-0.0651 1.170234,-0.15219 1.759364,-0.18643 -0.08612,0.32786 -0.430708,0.47416 -0.73492,0.53164 -0.276452,0.0574 -0.559582,0.11262 -0.802846,0.26395 -1.110861,0.5521 -2.221007,1.10765 -3.361629,1.5965 z"
       id="path44" /><path
       style="fill:#010028;fill-opacity:1;stroke:none;stroke-width:0.1;stroke-linecap:round;stroke-linejoin:round;stroke-dasharray:none;stroke-opacity:1"
       d="m 80.633016,170.47827 c 0.01588,0.21244 -0.06046,0.43966 0.04163,0.63968 0.199669,0.33791 0.409847,0.67187 0.662632,0.97339 0.182127,0.11321 0.34805,0.28416 0.573396,0.29995 0.05708,-0.0156 0.180698,0.0258 0.194532,-0.0337 -0.108697,-0.10278 -0.258938,-0.14934 -0.368484,-0.25236 -0.299093,-0.24693 -0.483389,-0.59541 -0.669391,-0.92824 -0.108792,-0.17501 -0.26706,-0.34128 -0.271114,-0.55939 -0.01022,-0.0783 0.0045,-0.18546 -0.06618,-0.23535 -0.04831,0.006 -0.07259,0.0598 -0.09702,0.096 z"
       id="path45" /><path
       style="fill:#010028;fill-opacity:1;stroke:none;stroke-width:0.1;stroke-linecap:round;stroke-linejoin:round;stroke-dasharray:none;stroke-opacity:1"
       d="m 79.724442,174.5266 c -0.300654,-0.22559 -0.568955,-0.50828 -0.930956,-0.63544 -0.268464,-0.12193 -0.537054,-0.24358 -0.805684,-0.36514 -0.116963,-0.006 -0.45217,4.8e-4 -0.15909,-0.0492 0.412415,-0.0761 0.815241,0.11357 1.19152,0.25816 0.359165,0.16001 0.69596,0.37344 1.026161,0.58762 0.304784,0.20112 0.552896,0.47462 0.782137,0.75588 -0.210432,0.20175 -0.449013,0.0286 -0.638349,-0.10124 -0.201563,-0.0977 -0.317253,-0.29476 -0.465739,-0.45064 z"
       id="path46" /><path
       style="fill:#010028;fill-opacity:1;stroke:none;stroke-width:0.1;stroke-linecap:round;stroke-linejoin:round;stroke-dasharray:none;stroke-opacity:1"
       d="m 82.105134,176.44726 c -0.13849,-0.60531 -0.267143,-1.25663 -0.729521,-1.70905 -0.494819,-0.57845 -0.636841,-1.37557 -1.151055,-1.94246 -0.26462,-0.32131 -0.487136,-0.69009 -0.798415,-0.96535 -0.147789,-0.16502 -0.877375,-0.44186 -0.422073,-0.11937 0.360638,0.2177 0.426127,0.66152 0.675813,0.97291 0.456043,0.59965 0.720483,1.30904 1.092652,1.95822 -0.04439,0.38122 0.156641,0.71467 0.410303,0.97776 0.279868,0.30469 0.620053,0.54589 0.922296,0.82734 z"
       id="path47" /><path
       style="fill:#010028;fill-opacity:1;stroke:none;stroke-width:0.1;stroke-linecap:round;stroke-linejoin:round;stroke-dasharray:none;stroke-opacity:1"
       d="m 82.039501,177.70888 c 0.463765,-0.32723 0.942289,-0.6365 1.396685,-0.97516 0.511475,-0.53442 1.026464,-1.06548 1.535499,-1.60223 0.04009,-0.0905 0.296476,-0.42829 0.09114,-0.23831 -0.674379,0.53853 -1.346317,1.08013 -2.022778,1.61605 -0.322674,0.16133 -0.645343,0.32267 -0.968017,0.484 -0.01084,0.23855 -0.02169,0.4771 -0.03253,0.71565 z"
       id="path116" /><path
       style="fill:#010028;fill-opacity:1;stroke:none;stroke-width:0.1;stroke-linecap:round;stroke-linejoin:round;stroke-dasharray:none;stroke-opacity:1"
       d="m 89.456235,175.7571 c -0.661432,-0.33614 -1.322869,-0.67227 -1.984301,-1.00841 -0.931705,0.48948 -1.878956,0.94845 -2.83007,1.39877 0.780832,-0.27878 1.551746,-0.59897 2.338883,-0.85159 0.328475,-0.0713 0.670435,-0.12595 0.987204,0.025 0.496086,0.14539 0.992251,0.29087 1.488284,0.43621 z"
       id="path117" /><path
       style="fill:#010028;fill-opacity:1;stroke:none;stroke-width:0.1;stroke-linecap:round;stroke-linejoin:round;stroke-dasharray:none;stroke-opacity:1"
       d="m 90.65983,173.96798 c 0.583138,0.46739 1.303702,0.80641 1.683148,1.48336 0.393614,0.52159 0.710387,1.09932 0.916861,1.71777 -0.172902,-0.64361 -0.253098,-1.33487 -0.677067,-1.87822 -0.283843,-0.70478 -1.009231,-0.93016 -1.648474,-1.20093 -0.09148,-0.0407 -0.182986,-0.0813 -0.274468,-0.12198 z"
       id="path118" /><path
       style="fill:#010028;fill-opacity:1;stroke:none;stroke-width:0.1;stroke-linecap:round;stroke-linejoin:round;stroke-dasharray:none;stroke-opacity:1"
       d="m 96.25491,179.72571 c -0.281099,-0.57159 -0.524075,-1.16591 -0.829761,-1.72289 -0.449908,-0.58592 -0.899809,-1.17185 -1.349718,-1.75777 0.466223,0.43821 0.969252,0.84369 1.411812,1.30302 0.418394,0.614 0.848138,1.22056 1.246038,1.84825 -0.150041,0.12304 -0.320136,0.21786 -0.478371,0.32939 z"
       id="path119" /><path
       style="fill:#010028;fill-opacity:1;stroke:none;stroke-width:0.1;stroke-linecap:round;stroke-linejoin:round;stroke-dasharray:none;stroke-opacity:1"
       d="m 97.133208,178.52212 c 0.314454,-0.52047 0.628902,-1.04095 0.943356,-1.56142 -0.201783,0.48399 -0.423268,0.96037 -0.611821,1.44949 -0.0563,0.17827 -0.112593,0.35654 -0.168888,0.53481 -0.05422,-0.14096 -0.108431,-0.28192 -0.162647,-0.42288 z"
       id="path120" /><path
       style="fill:#010028;fill-opacity:1;stroke:none;stroke-width:0.1;stroke-linecap:round;stroke-linejoin:round;stroke-dasharray:none;stroke-opacity:1"
       d="m 88.773115,174.35833 c 0.618031,0.47573 1.164402,1.0712 1.909148,1.35275 0.484346,0.24156 1.001148,0.43355 1.453717,0.72956 0.112541,0.0925 0.653307,0.61317 0.362053,0.2808 -0.233223,-0.27807 -0.466446,-0.55615 -0.699669,-0.83422 -1.004757,-0.51683 -2.013406,-1.02608 -3.025249,-1.52889 z"
       id="path121" /><path
       style="fill:#010028;fill-opacity:1;stroke:none;stroke-width:0.1;stroke-linecap:round;stroke-linejoin:round;stroke-dasharray:none;stroke-opacity:1"
       d="m 102.88731,172.55994 c 0.15173,-1.59007 0.10383,-3.18948 0.10388,-4.7838 0.0783,-0.80507 -0.06,-1.61139 -0.21086,-2.39951 -0.0498,-0.20755 -0.29537,-0.58581 -0.24225,-0.68978 0.32247,0.29994 0.65786,0.60409 0.8508,1.00787 0.19706,0.27128 0.54321,0.38733 0.72896,0.66765 -0.37718,-0.10983 -0.73412,-0.3145 -0.98974,-0.61646 0.12551,0.64609 0.33531,1.27128 0.49627,1.90862 -0.0306,1.111 -0.0111,2.23108 -0.18845,3.33104 -0.1247,0.54312 -0.33456,1.06161 -0.54861,1.57437 z"
       id="path49" /><path
       style="fill:#010028;fill-opacity:1;stroke:none;stroke-width:0.1;stroke-linecap:round;stroke-linejoin:round;stroke-dasharray:none;stroke-opacity:1"
       d="m 101.42711,160.63087 c 0.45678,0.75765 0.94148,1.49916 1.46108,2.21468 0.46658,0.80139 0.86909,1.65378 1.08015,2.55999 0.10417,0.61419 0.21407,1.23011 0.26005,1.85185 0.0242,0.44699 0.009,0.89473 0.0129,1.34208 0.0838,-0.76495 0.22651,-1.53356 0.14291,-2.30525 -0.0174,-0.59928 -0.14606,-1.18695 -0.24765,-1.77567 -0.27956,-0.65823 -0.56595,-1.32178 -1.00498,-1.89248 -0.48394,-0.66323 -1.07909,-1.23409 -1.59588,-1.87059 -0.0361,-0.0416 -0.0724,-0.0832 -0.10861,-0.12461 z"
       id="path50" /><path
       style="fill:#010028;fill-opacity:1;stroke:none;stroke-width:0.1;stroke-linecap:round;stroke-linejoin:round;stroke-dasharray:none;stroke-opacity:1"
       d="m 103.55779,163.00553 c 0.16204,0.38044 0.85033,0.98049 1.06627,0.61105 -0.28779,-0.83263 -0.59216,-1.65975 -1.04209,-2.42044 -0.79149,-1.47828 -1.76976,-2.85215 -2.83761,-4.14237 -0.802931,-0.85301 -1.614316,-1.73369 -2.642592,-2.31747 -0.27979,-0.18811 -0.554938,-0.36325 -0.149647,-0.051 1.253143,0.94667 2.158589,2.25579 3.151159,3.45435 0.62107,0.89698 1.08296,1.89776 1.67408,2.81661 0.41834,0.71013 0.87174,1.40847 1.18917,2.17082 -0.11274,0.10216 -0.30169,-0.0754 -0.40874,-0.12156 z"
       id="path51" /><path
       style="fill:#010028;fill-opacity:1;stroke:none;stroke-width:0.1;stroke-linecap:round;stroke-linejoin:round;stroke-dasharray:none;stroke-opacity:1"
       d="m 97.751269,154.51532 c -0.460833,-0.39578 -1.068056,-1.11685 -1.528889,-1.51263 1.794205,0.90861 3.62005,1.75286 5.45215,2.58178 -0.46512,0.0136 -0.96195,0.0882 -1.39124,-0.14087 -0.893465,-0.38124 -1.735522,-0.87219 -2.547579,-1.40282 -0.07015,-0.0488 -0.403643,-0.0583 -0.377144,0.0812 0.02034,0.10702 0.396879,0.3608 0.392702,0.39335 z"
       id="path52"
       sodipodi:nodetypes="cccccsc" /><path
       style="fill:#010028;fill-opacity:1;stroke:none;stroke-width:0.1;stroke-linecap:round;stroke-linejoin:round;stroke-dasharray:none;stroke-opacity:1"
       d="m 91.993539,149.13168 c 1.619909,1.16677 3.361412,2.14798 5.046611,3.21381 0.937741,0.64012 1.75601,1.43308 2.567328,2.22227 -0.711252,-0.90724 -1.361253,-1.92289 -2.384417,-2.51279 -1.617073,-1.18169 -3.401595,-2.11455 -5.229522,-2.92329 z"
       id="path53" /><path
       style="fill:#010028;fill-opacity:1;stroke:none;stroke-width:0.1;stroke-linecap:round;stroke-linejoin:round;stroke-dasharray:none;stroke-opacity:1"
       d="m 133.82481,165.93541 c 0.9665,0.6166 1.90457,1.29396 2.95184,1.76848 0.23301,0.035 0.4705,0.0458 0.70546,0.0716 -0.3108,-0.30372 -0.6369,-0.5987 -1.04343,-0.76718 -0.46534,-0.27048 -0.94826,-0.51692 -1.47451,-0.64368 -0.38664,-0.12374 -0.76918,-0.26232 -1.13936,-0.42922 z"
       id="path59" /><path
       style="fill:#010028;fill-opacity:1;stroke:none;stroke-width:0.1;stroke-linecap:round;stroke-linejoin:round;stroke-dasharray:none;stroke-opacity:1"
       d="m 133.45678,165.13034 c 0.71729,0.17665 1.42728,0.39217 2.16303,0.48001 0.42183,0.07 0.84969,0.0858 1.27557,0.11128 -0.0405,-0.0508 -0.33162,-0.14112 -0.46896,-0.20857 -0.47016,-0.20408 -0.98379,-0.27135 -1.48308,-0.36946 -0.42509,-0.0961 -0.85866,-0.0295 -1.28869,-0.0214 -0.0659,0.003 -0.13202,0.006 -0.19787,0.008 z"
       id="path60" /><path
       style="fill:#010028;fill-opacity:1;stroke:none;stroke-width:0.1;stroke-linecap:round;stroke-linejoin:round;stroke-dasharray:none;stroke-opacity:1"
       d="m 132.12268,161.95609 c 0.53358,0.51337 1.0364,1.06345 1.64624,1.49003 0.43322,0.37638 1.00616,0.49761 1.52677,0.70472 0.24835,0.0896 0.7788,0.15726 0.87542,0.10598 -0.66106,-0.32203 -1.3411,-0.61283 -1.9477,-1.03398 -0.58642,-0.36827 -1.17661,-0.73163 -1.74187,-1.13215 -0.11963,-0.0448 -0.23931,-0.0897 -0.35886,-0.1346 z"
       id="path61" /><path
       style="fill:#010028;fill-opacity:1;stroke:none;stroke-width:0.1;stroke-linecap:round;stroke-linejoin:round;stroke-dasharray:none;stroke-opacity:1"
       d="m 131.85815,159.86292 c 0.14333,0.28847 0.22585,0.62178 0.49048,0.83144 0.26868,0.2732 0.50371,0.59873 0.86691,0.75084 0.54925,0.33031 1.17134,0.56255 1.81868,0.56583 0.30654,0.024 0.61747,-0.0206 0.90676,-0.12394 -0.41253,0.007 -0.82592,-0.0109 -1.22328,-0.12955 -0.47553,-0.0978 -0.82107,-0.45985 -1.23829,-0.68057 -0.5073,-0.30177 -0.98527,-0.64991 -1.41627,-1.05314 -0.0672,-0.0551 -0.13567,-0.1087 -0.20499,-0.16091 z"
       id="path62" /><path
       style="fill:#010028;fill-opacity:1;stroke:none;stroke-width:0.1;stroke-linecap:round;stroke-linejoin:round;stroke-dasharray:none;stroke-opacity:1"
       d="m 132.05367,158.34479 c 0.41113,0.14501 0.28629,0.5994 0.48418,0.89268 0.16269,0.42222 0.58183,0.64845 0.88697,0.95657 0.49094,0.44908 1.06716,0.78508 1.61872,1.15038 0.43297,0.21285 0.93291,0.24495 1.40457,0.16969 -0.3752,-0.094 -0.77414,-0.14025 -1.0901,-0.38476 -0.66857,-0.41478 -1.25258,-0.94907 -1.90543,-1.38716 -0.35141,-0.25389 -0.64936,-0.5841 -0.73645,-1.0203 -0.0797,-0.28418 -0.36635,-0.49976 -0.66246,-0.3771 z"
       id="path63" /><path
       style="fill:#010028;fill-opacity:1;stroke:none;stroke-width:0.1;stroke-linecap:round;stroke-linejoin:round;stroke-dasharray:none;stroke-opacity:1"
       d="m 91.777417,135.34294 c 0.896085,0.39542 1.808868,0.75667 2.694206,1.17413 0.79619,0.53306 1.624264,1.02152 2.397595,1.5868 1.237117,1.01283 2.480839,2.01798 3.694912,3.05854 -0.56098,-0.62325 -1.083415,-1.2843 -1.669959,-1.8826 -0.901123,-0.74126 -1.80029,-1.48591 -2.650198,-2.28601 -0.405955,-0.30376 -0.885715,-0.4934 -1.318881,-0.75617 -0.434518,-0.22673 -0.853973,-0.49315 -1.302429,-0.6867 -0.452116,-0.0967 -0.894921,-0.30982 -1.365607,-0.23322 -0.159874,0.008 -0.319799,0.0168 -0.479639,0.0252 z"
       id="path54" /><path
       style="fill:#010028;fill-opacity:1;stroke:none;stroke-width:0.1;stroke-linecap:round;stroke-linejoin:round;stroke-dasharray:none;stroke-opacity:1"
       d="m 90.696329,133.18076 c 1.262803,0.68084 2.526975,1.3597 3.760871,2.09221 0.760845,0.43955 1.536066,0.8552 2.298762,1.29039 0.342552,0.25135 0.686274,0.50115 1.024938,0.75774 0.0031,0.21655 -0.182839,0.36642 -0.30532,0.34552 0.290881,0.13808 0.434278,-0.23303 0.343112,-0.46114 -0.105272,-0.19505 -0.347325,-0.28229 -0.507596,-0.43579 -1.05652,-0.80218 -2.120164,-1.59499 -3.191239,-2.37763 -0.55114,-0.28355 -1.089964,-0.59512 -1.677424,-0.80002 -0.501992,-0.20862 -1.050726,-0.25237 -1.576267,-0.37694 -0.0566,-0.0114 -0.113373,-0.0228 -0.169837,-0.0343 z"
       id="path55" /><path
       style="fill:#010028;fill-opacity:1;stroke:none;stroke-width:0.1;stroke-linecap:round;stroke-linejoin:round;stroke-dasharray:none;stroke-opacity:1"
       d="m 80.207481,127.70632 c 1.819727,0.11341 3.643414,0.20521 5.46067,0.3321 1.258191,0.40032 2.525657,0.77697 3.778069,1.19203 0.681245,0.34346 1.397393,0.62338 2.053972,1.01174 0.358841,0.19408 0.667121,0.51309 1.090681,0.54727 0.454065,0.0932 0.903778,0.22792 1.372275,0.18312 0.368457,-0.0162 0.214787,0.0192 -0.05571,0.0662 -0.514257,0.0952 -1.027611,0.22079 -1.542427,0.29715 -0.499422,-0.0812 -1.001162,-0.13522 -1.507672,-0.13336 0.555964,0.25291 1.13943,0.45392 1.677764,0.74011 0.465216,0.29681 0.942583,0.57748 1.335363,0.97055 0.584184,0.49157 1.105516,1.05095 1.656251,1.57861 -0.961815,-0.71283 -1.91872,-1.43756 -2.919283,-2.0936 -0.773664,-0.40461 -1.547699,-0.80842 -2.355203,-1.14206 -0.494116,-0.25482 -0.979678,-0.53001 -1.521775,-0.67056 -0.359119,-0.12597 -0.728546,-0.21861 -1.093376,-0.32612 0.549926,0.005 1.106391,-0.0412 1.652172,-0.005 0.660228,0.16573 1.30824,0.41623 1.987954,0.48109 0.165973,-0.001 0.610937,0.0948 0.264081,-0.0849 -0.357719,-0.25409 -0.714154,-0.51054 -1.136748,-0.64529 -0.900702,-0.39972 -1.865898,-0.62164 -2.7985,-0.93342 -1.173777,-0.38745 -2.390442,-0.62265 -3.590783,-0.90992 -1.269259,-0.152 -2.538518,-0.30401 -3.807777,-0.45602 z"
       id="path56" /><path
       style="fill:#010028;fill-opacity:1;stroke:none;stroke-width:0.1;stroke-linecap:round;stroke-linejoin:round;stroke-dasharray:none;stroke-opacity:1"
       d="m 76.435177,124.76208 c 1.044169,-0.11859 2.083554,-0.31801 3.131058,-0.38306 0.71894,0.0305 1.438406,0.0494 2.15686,0.0907 0.912411,0.31507 1.868627,0.53018 2.702911,1.0333 0.539699,0.26444 1.065056,0.58704 1.644335,0.7517 0.252496,0.0146 1.140372,-0.1118 0.44359,0.13928 -0.537781,0.21876 -1.189948,0.3034 -1.682002,-0.0676 -0.652961,-0.29334 -1.309861,-0.58768 -1.988094,-0.81673 -0.671677,-0.15109 -1.336292,-0.36586 -2.032703,-0.33519 -1.282312,-0.0628 -2.560468,-0.18806 -3.843961,-0.23134 -0.18522,-0.0183 -0.353778,-0.12913 -0.531994,-0.1811 z"
       id="path57" /><path
       style="fill:#010028;fill-opacity:1;stroke:none;stroke-width:0.1;stroke-linecap:round;stroke-linejoin:round;stroke-dasharray:none;stroke-opacity:1"
       d="m 79.793448,126.90125 c 1.16919,0.10282 2.33729,0.21954 3.507184,0.31337 0.536119,0.031 1.071828,0.0791 1.608207,0.0993 0.569633,-0.004 1.139832,-0.0414 1.708628,0.004 0.278533,0.0144 0.557067,0.0288 0.8356,0.0432 -0.96767,-0.15151 -1.934471,-0.3082 -2.898235,-0.48304 -0.575699,-0.0523 -1.1503,-0.1223 -1.726696,-0.16347 -0.561643,-0.0108 -1.124397,-0.0376 -1.68535,-0.0384 -0.449779,0.075 -0.899559,0.14992 -1.349338,0.22488 z"
       id="path58" /><path
       style="fill:#010028;fill-opacity:1;stroke:none;stroke-width:0.1;stroke-linecap:round;stroke-linejoin:round;stroke-dasharray:none;stroke-opacity:1"
       d="m 156.85744,142.77215 c 0.96186,1.54284 1.97943,3.05871 2.72414,4.72365 0.72502,1.39901 1.59292,2.72516 2.18782,4.18945 -1.02373,-1.50982 -2.18963,-2.93816 -2.94082,-4.61406 -0.5795,-1.2504 -1.36147,-2.39555 -1.92949,-3.64973 -0.0117,-0.21656 -0.0267,-0.43304 -0.0417,-0.64931 z"
       id="path66" /><path
       style="fill:#010028;fill-opacity:1;stroke:none;stroke-width:0.1;stroke-linecap:round;stroke-linejoin:round;stroke-dasharray:none;stroke-opacity:1"
       d="m 158.66682,148.98304 c 0.62345,0.85998 1.27729,1.71305 1.63684,2.72476 0.83994,1.88407 1.51738,3.8346 2.18147,5.78592 -0.27911,-1.27851 -0.44424,-2.59318 -0.98468,-3.79848 -0.32269,-0.88934 -0.6143,-1.7898 -0.88216,-2.69711 -0.90909,-1.23837 -2.03439,-2.29597 -3.14757,-3.3492 0.3987,0.4447 0.7974,0.88941 1.1961,1.33411 z"
       id="path67" /><path
       style="fill:#010028;fill-opacity:1;stroke:none;stroke-width:0.1;stroke-linecap:round;stroke-linejoin:round;stroke-dasharray:none;stroke-opacity:1"
       d="m 160.69098,154.87151 c 0.38798,0.78981 0.82595,1.55915 1.18163,2.36225 0.41671,1.4483 0.89742,2.88125 1.17598,4.36515 0.0456,0.26651 0.22572,0.85735 0.21931,0.88722 -0.35621,-1.12332 -0.70899,-2.24851 -1.16325,-3.33707 -0.40077,-1.01889 -0.66485,-2.08594 -1.08482,-3.09774 -0.11483,-0.39159 -0.21678,-0.78724 -0.32885,-1.17981 z"
       id="path68" /><path
       style="fill:#010028;fill-opacity:1;stroke:none;stroke-width:0.1;stroke-linecap:round;stroke-linejoin:round;stroke-dasharray:none;stroke-opacity:1"
       d="m 164.76806,163.80774 c -0.43464,-0.32783 -0.88899,-0.63296 -1.31097,-0.97542 -0.47294,-0.49016 -0.91998,-1.00341 -1.34354,-1.53671 -0.23134,-0.30278 -0.52871,-0.56296 -0.67604,-0.92091 -0.084,-0.16676 -0.16799,-0.33352 -0.25199,-0.50028 0.22687,0.51946 0.40509,1.0637 0.72086,1.53896 0.30347,0.5454 0.6199,1.08329 0.99926,1.5802 0.42572,0.61288 0.87969,1.2063 1.39664,1.74573 0.15526,-0.31052 0.31052,-0.62105 0.46578,-0.93157 z"
       id="path69" /><path
       style="fill:#010028;fill-opacity:1;stroke:none;stroke-width:0.1;stroke-linecap:round;stroke-linejoin:round;stroke-dasharray:none;stroke-opacity:1"
       d="m 153.60641,169.10966 c 0.46507,0.18372 0.95351,0.47765 1.47126,0.33128 0.56204,-0.0946 1.135,-0.17216 1.65991,-0.40822 0.11259,-0.0567 0.42198,-0.17995 0.38892,-0.22616 -0.58496,-0.002 -1.16632,0.0793 -1.74876,0.12458 -0.59053,0.0586 -1.18042,0.12407 -1.77133,0.17852 z"
       id="path111" /><path
       style="fill:#010028;fill-opacity:1;stroke:none;stroke-width:0.1;stroke-linecap:round;stroke-linejoin:round;stroke-dasharray:none;stroke-opacity:1"
       d="m 155.79159,167.79856 c 0.29238,0.11807 0.55851,0.3573 0.89568,0.30901 0.65264,-0.005 1.30678,-0.0297 1.95621,-0.0894 0.37082,-0.16841 0.76244,-0.31283 1.068,-0.59127 -0.21783,0.005 -0.48027,0.0841 -0.71497,0.11869 -0.67379,0.13986 -1.36612,0.0935 -2.04868,0.14901 -0.38635,0.0225 -0.77247,0.0538 -1.15624,0.10395 z"
       id="path112" /><path
       style="fill:#010028;fill-opacity:1;stroke:none;stroke-width:0.1;stroke-linecap:round;stroke-linejoin:round;stroke-dasharray:none;stroke-opacity:1"
       d="m 158.31029,166.37244 c 0.44956,0.0815 0.89705,0.18373 1.34793,0.25203 0.32097,-0.0136 0.64536,-0.003 0.96417,-0.0325 0.29505,-0.0885 0.59011,-0.17703 0.88516,-0.26554 -1.06545,0.0375 -2.13182,0.0117 -3.19726,0.0461 z"
       id="path113" /><path
       style="fill:#010028;fill-opacity:1;stroke:none;stroke-width:0.1;stroke-linecap:round;stroke-linejoin:round;stroke-dasharray:none;stroke-opacity:1"
       d="m 160.27695,165.06134 c 0.36548,0.17582 0.76478,0.29166 1.1062,0.51099 0.14052,0.15663 0.34987,0.18902 0.54783,0.19945 0.18855,0.0239 0.3771,0.0477 0.56565,0.0716 0.1477,-0.0834 0.54195,-0.14839 0.53242,-0.24424 -0.52194,-0.084 -1.04711,-0.16853 -1.54294,-0.35896 -0.39367,-0.11008 -0.80676,-0.11734 -1.20916,-0.17883 z"
       id="path114" /><path
       style="fill:#010028;fill-opacity:1;stroke:none;stroke-width:0.1;stroke-linecap:round;stroke-linejoin:round;stroke-dasharray:none;stroke-opacity:1"
       d="m 163.77323,164.79681 c -0.33851,-0.15205 -0.67898,-0.29964 -1.02801,-0.42614 -0.0968,-0.038 -0.193,-0.0797 -0.29851,-0.0816 -0.16737,-0.0186 -0.33475,-0.0372 -0.50212,-0.0558 -0.0805,0.0331 -0.26375,0.0806 -0.27876,0.10465 0.21488,0.0157 0.43343,0.0127 0.64596,0.0412 0.26314,0.10517 0.53203,0.19829 0.77891,0.33942 0.26585,0.13729 0.53169,0.27458 0.79754,0.41186"
       id="path115" /><path
       style="fill:#010028;fill-opacity:1;stroke:none;stroke-width:0.1;stroke-linecap:round;stroke-linejoin:round;stroke-dasharray:none;stroke-opacity:1"
       d="m 171.88609,146.54558 c 1.37391,0.0156 2.61304,0.67355 3.6348,1.54945 1.79189,1.55476 3.47123,3.35896 4.27371,5.63754 0.44902,1.15442 0.79844,2.41039 0.40891,3.63446 0.71092,-0.42426 0.50435,-2.25716 0.20228,-3.22957 -0.77901,-2.66345 -2.59651,-4.93787 -4.78992,-6.59008 -1.07447,-0.79513 -2.39636,-1.16025 -3.72978,-1.0018 z"
       id="path70" /><path
       style="fill:#010028;fill-opacity:1;stroke:none;stroke-width:0.1;stroke-linecap:round;stroke-linejoin:round;stroke-dasharray:none;stroke-opacity:1"
       d="m 179.98954,143.68111 c 2.25103,0.34321 4.6781,0.43623 6.57909,1.85075 1.52075,1.0858 2.77502,2.56796 3.66035,4.2116 0.72261,1.542 1.14145,3.27876 0.92168,4.98514 0.52852,-1.30046 0.2159,-2.71601 -0.026,-4.0427 -0.48724,-1.88143 -1.74324,-3.48991 -3.1714,-4.7716 -1.62789,-1.30925 -3.65259,-2.14299 -5.75766,-2.15601 -0.73557,-0.0185 -1.47075,-0.0513 -2.2061,-0.0772 z"
       id="path71" /><path
       style="fill:#010028;fill-opacity:1;stroke:none;stroke-width:0.1;stroke-linecap:round;stroke-linejoin:round;stroke-dasharray:none;stroke-opacity:1"
       d="m 185.78601,139.32226 c 2.69328,-0.51718 5.60809,-0.51996 8.07218,0.83059 2.29316,1.10611 4.1845,3.13699 4.95525,5.57711 -0.0842,-3.01416 -2.63913,-5.19465 -5.21412,-6.31158 -1.78035,-0.89765 -3.85225,-1.12548 -5.76929,-0.55458 -0.68219,0.14902 -1.35818,0.32621 -2.04402,0.45846 z"
       id="path72" /><path
       style="fill:#010028;fill-opacity:1;stroke:none;stroke-width:0.1;stroke-linecap:round;stroke-linejoin:round;stroke-dasharray:none;stroke-opacity:1"
       d="m 191.20864,133.27353 c 2.71742,-1.23898 6.21681,-1.96627 8.81739,-0.0666 2.32922,1.57073 4.05093,3.9739 4.88588,6.64631 0.31227,-1.64876 -0.83382,-3.09479 -1.65147,-4.41687 -1.0817,-1.54367 -2.61938,-2.73691 -4.28241,-3.5858 -1.95465,-0.76198 -4.13965,-0.35151 -6.08096,0.22046 -0.62128,0.31418 -1.11431,0.81774 -1.68843,1.20253 z"
       id="path73" /><path
       style="fill:#010028;fill-opacity:1;stroke:none;stroke-width:0.1;stroke-linecap:round;stroke-linejoin:round;stroke-dasharray:none;stroke-opacity:1"
       d="m 172.40656,147.48893 c 3.98981,-0.54985 8.28222,-0.90838 11.64382,-3.34877 2.80878,-1.66648 5.60833,-3.39748 7.86863,-5.78736 2.6848,-1.96193 3.85126,-5.16891 5.43163,-7.96465 0.55615,-1.02163 0.89145,-1.69247 0.0605,-0.34894 -2.06607,3.33071 -4.12706,6.80642 -7.35094,9.15937 -2.59012,2.21293 -5.55187,3.95331 -8.43483,5.73543 -2.96457,1.20465 -6.12532,1.78954 -9.21882,2.55492 z"
       id="path74" /><path
       style="fill:#010028;fill-opacity:1;stroke:none;stroke-width:0.1;stroke-linecap:round;stroke-linejoin:round;stroke-dasharray:none;stroke-opacity:1"
       d="m 174.44609,150.75418 2.3692,-0.29902 2.16217,-0.36803 -0.92007,0.55204 -0.96608,0.23002 -1.28811,0.069 z"
       id="path75" /><path
       style="fill:#010028;fill-opacity:1;stroke:none;stroke-width:0.1;stroke-linecap:round;stroke-linejoin:round;stroke-dasharray:none;stroke-opacity:1"
       d="m 180.01254,150.13313 c 2.39216,-0.65058 4.65191,-1.70037 6.8324,-2.86208 2.00899,-1.38575 3.88801,-2.96646 5.68974,-4.60841 0.42371,-0.41147 1.32049,-1.44729 1.46645,-1.4734 -0.9358,1.42976 -2.08172,2.71865 -3.46246,3.73176 -1.68948,1.4495 -3.44978,2.88136 -5.55592,3.67679 -1.58555,0.72536 -3.30519,1.05027 -4.97021,1.53534 z"
       id="path76" /><path
       style="fill:#010028;fill-opacity:1;stroke:none;stroke-width:0.1;stroke-linecap:round;stroke-linejoin:round;stroke-dasharray:none;stroke-opacity:1"
       d="m 198.07237,136.29877 c 0.88102,-1.20815 1.71255,-2.4583 2.38726,-3.79477 0.45514,-0.75482 0.63987,-1.62637 0.89833,-2.45883 -0.15782,1.06597 -0.18773,2.20471 -0.77054,3.14835 -0.40567,0.92834 -1.04388,1.7418 -1.8048,2.4056 -0.23674,0.23323 -0.47459,0.46533 -0.71025,0.69965 z"
       id="path77" /><path
       style="fill:#010028;fill-opacity:1;stroke:none;stroke-width:0.1;stroke-linecap:round;stroke-linejoin:round;stroke-dasharray:none;stroke-opacity:1"
       d="m 170.62779,154.84851 c 2.32582,0.5161 4.72882,1.03015 7.11687,0.65453 0.63891,-0.057 1.27882,-0.12985 1.91404,-0.22863 0.39531,-0.0368 0.7991,-0.15031 1.19437,-0.0858 -0.26292,0.17293 -0.7435,0.2402 -1.09397,0.35291 -2.43075,0.62043 -5.01909,0.74397 -7.4658,0.13825 -0.56555,-0.25502 -1.14117,-0.49601 -1.66551,-0.83127 z"
       id="path78" /><path
       style="fill:#010028;fill-opacity:1;stroke:none;stroke-width:0.1;stroke-linecap:round;stroke-linejoin:round;stroke-dasharray:none;stroke-opacity:1"
       d="m 183.51436,154.36491 c 2.8859,-0.56585 5.8098,-1.44351 8.11879,-3.34161 -0.21318,0.67031 -1.90397,2.02659 -3.05886,2.36047 -1.69072,0.66675 -3.51437,1.50907 -5.36873,1.1028 -0.43947,-0.1748 0.25901,-0.1338 0.3088,-0.12166 z"
       id="path79" /><path
       style="fill:#010028;fill-opacity:1;stroke:none;stroke-width:0.1;stroke-linecap:round;stroke-linejoin:round;stroke-dasharray:none;stroke-opacity:1"
       d="m 199.69885,142.25168 c 2.51758,-3.59855 4.878,-7.50543 5.77259,-11.85138 0.56602,-2.14166 0.36257,-3.98226 0.27778,-5.97481 0.90833,3.74035 0.077,7.69062 -1.41939,11.16388 -1.16066,2.46402 -2.97106,4.53087 -4.63098,6.66231 z"
       id="path80"
       sodipodi:nodetypes="ccccc" /><path
       style="fill:#010028;fill-opacity:1;stroke:none;stroke-width:0.1;stroke-linecap:round;stroke-linejoin:round;stroke-dasharray:none;stroke-opacity:1"
       d="m 77.664277,186.6545 c 0.824842,-1.42282 1.581411,-2.89478 2.627102,-4.17442 0.774774,-1.13245 1.668987,-2.17707 2.701097,-3.08281 0.337861,-0.28942 0.786208,-0.94081 0.872049,-1.17807 -0.776526,0.89819 -1.738223,1.60808 -2.552362,2.46514 -1.186061,1.2947 -2.274171,2.68062 -3.231829,4.15279 -0.124893,0.67761 -1.423845,1.3183 -0.41606,1.81737 z"
       id="path81" /><path
       style="fill:#010028;fill-opacity:1;stroke:none;stroke-width:0.1;stroke-linecap:round;stroke-linejoin:round;stroke-dasharray:none;stroke-opacity:1"
       d="m 79.701439,190.08736 c 0.927748,-1.67908 1.655666,-3.49728 2.926844,-4.96095 0.840665,-1.1231 1.670632,-2.25844 2.616606,-3.29672 -1.579652,2.46083 -3.456286,4.72302 -4.919913,7.25977 -0.208086,0.33248 -0.415751,0.66523 -0.623537,0.9979 z"
       id="path82" /><path
       style="fill:#010028;fill-opacity:1;stroke:none;stroke-width:0.1;stroke-linecap:round;stroke-linejoin:round;stroke-dasharray:none;stroke-opacity:1"
       d="m 84.41682,192.38755 c 0.212947,-2.61533 0.247797,-5.23977 1.053736,-7.74701 0.179355,-1.0493 1.033335,-2.90141 0.951435,-3.4544 -0.400447,1.06607 -0.795347,2.17064 -1.10777,3.31574 -0.743976,2.25459 -0.873089,4.56857 -0.988883,7.01165 0.02502,0.29188 0.0563,0.5832 0.09148,0.87402 z"
       id="path85"
       sodipodi:nodetypes="sccccss" /><path
       style="fill:#010028;fill-opacity:1;stroke:none;stroke-width:0.1;stroke-linecap:round;stroke-linejoin:round;stroke-dasharray:none;stroke-opacity:1"
       d="m 90.466308,181.25464 -0.39103,2.02417 -0.73606,3.12825 -0.759061,2.4152 -0.667054,2.09317 -0.598048,2.30018 1.173096,-3.08225 0.87407,-2.94423 0.506041,-2.59921 z"
       id="path86" /><path
       style="fill:#010028;fill-opacity:1;stroke:none;stroke-width:0.1;stroke-linecap:round;stroke-linejoin:round;stroke-dasharray:none;stroke-opacity:1"
       d="m 91.938429,191.49047 c -0.184256,-1.20547 -0.386576,-2.40849 -0.559426,-3.6155 -0.114624,-0.94219 -0.211154,-1.88619 -0.284316,-2.83253 -0.110693,-1.25554 -0.239278,-2.50945 -0.352355,-3.76479 0.183374,1.41631 0.386264,2.8303 0.557075,4.24809 0.206175,1.989 0.412583,3.97791 0.639022,5.96473 z"
       id="path87" /><path
       style="fill:#010028;fill-opacity:1;stroke:none;stroke-width:0.1;stroke-linecap:round;stroke-linejoin:round;stroke-dasharray:none;stroke-opacity:1"
       d="m 95.047708,191.24593 c 0.05429,-2.71415 0.02577,-5.47164 -0.661371,-8.11396 -0.22291,-0.65832 -0.445821,-1.31664 -0.668731,-1.97496 0.541676,1.01946 1.014086,2.098 1.119897,3.26039 0.320501,1.94341 0.593714,3.90778 0.541191,5.88237 0.106967,0.35817 -0.09224,0.69519 -0.330986,0.94616 z"
       id="path88" /><path
       style="fill:#010028;fill-opacity:1;stroke:none;stroke-width:0.1;stroke-linecap:round;stroke-linejoin:round;stroke-dasharray:none;stroke-opacity:1"
       d="m 95.434711,184.67042 c 0.221353,0.81881 0.364132,1.66364 0.709362,2.44342 0.246189,0.70243 0.602664,1.35882 0.981877,1.99656 0.110828,0.14605 0.250813,0.2231 0.106546,9e-5 -0.676128,-1.44771 -1.285696,-2.92628 -1.797785,-4.44007 z"
       id="path89" /><path
       style="fill:#010028;fill-opacity:1;stroke:none;stroke-width:0.1;stroke-linecap:round;stroke-linejoin:round;stroke-dasharray:none;stroke-opacity:1"
       d="m 6.4405205,172.81296 c 0.6804098,-1.01942 1.4864966,-1.95784 2.4345452,-2.7377 1.5705083,-1.39594 3.4707213,-2.33867 5.3784033,-3.18101 0.450986,-0.1921 0.885516,-0.45037 1.369215,-0.54887 -2.16915,1.1131 -4.638277,2.26186 -6.2677155,3.85905 -0.7893339,0.67927 -1.5198673,1.40557 -2.1208087,2.26733 -0.2795007,0.16766 -0.365078,1.14496 -0.7936393,0.3412 z"
       id="path105"
       sodipodi:nodetypes="ccccccc" /><path
       style="fill:#010028;fill-opacity:1;stroke:none;stroke-width:0.1;stroke-linecap:round;stroke-linejoin:round;stroke-dasharray:none;stroke-opacity:1"
       d="m 9.890799,174.69912 c 0.719546,-1.46737 1.66651,-2.85014 2.946469,-3.88477 1.517922,-1.29785 3.296836,-2.22712 4.989172,-3.26881 -1.984739,1.46827 -4.136636,2.75245 -5.837638,4.56685 -0.842747,0.67678 -0.897457,1.93909 -1.784067,2.57438 -0.08913,0.0543 -0.3377185,0.24495 -0.313936,0.0123 z"
       id="path106" /><path
       style="display:inline;fill:#010028;fill-opacity:1;stroke:none;stroke-width:0.1;stroke-linecap:round;stroke-linejoin:round;stroke-dasharray:none;stroke-opacity:1"
       d="m 30.301266,169.67408 c -0.01218,-0.47297 0.318881,-0.81262 0.670473,-1.06786 0.407154,-0.33831 0.910685,-0.5431 1.40802,-0.70678 0.444109,-0.0614 0.993649,-0.29579 1.357538,0.0898 0.309989,0.34576 0.09922,0.88536 -0.275407,1.09278 -0.371824,0.35714 -0.895732,0.45662 -1.379923,0.55896 -0.440985,0.006 -0.880011,-0.0649 -1.312625,-0.12479 -0.168037,0.005 -0.324565,0.0763 -0.468076,0.15791 z"
       id="path31"
       inkscape:label="nariz-1" /><path
       style="display:inline;fill:#010028;fill-opacity:1;stroke:none;stroke-width:0.1;stroke-linecap:round;stroke-linejoin:round;stroke-dasharray:none;stroke-opacity:1"
       d="m 24.968517,168.01708 c 0.103343,-0.35363 0.270506,-0.70885 0.220639,-1.08648 -0.0099,-0.17618 0.01945,-0.35773 -0.04158,-0.52803 -0.04701,-0.15534 -0.188315,-0.30169 -0.361474,-0.28508 -0.149055,0.0143 -0.289866,0.0763 -0.422482,0.1424 -0.187686,0.0987 -0.334734,0.25378 -0.474604,0.40954 -0.184916,0.18941 -0.38181,0.40016 -0.418487,0.67399 -0.02807,0.14577 -0.02186,0.31039 0.0788,0.4288 0.09494,0.12763 0.225034,0.23148 0.3705,0.29479 0.232307,0.0615 0.449063,-0.0758 0.656918,-0.15829 0.09649,-0.0335 0.235395,-0.10897 0.318451,-0.0131 0.03062,0.0365 0.04812,0.0815 0.07332,0.12147 z"
       id="path32"
       inkscape:label="nariz-2" /><path
       style="display:inline;fill:#010028;fill-opacity:1;stroke:none;stroke-width:0.1;stroke-linecap:round;stroke-linejoin:round;stroke-dasharray:none;stroke-opacity:1"
       d="m 43.70353,157.05669 c 0.335472,-0.82066 0.687268,-1.63953 1.167582,-2.38772 0.514499,-0.81229 1.231911,-1.48121 2.024261,-2.01826 0.451937,-0.26261 0.936412,-0.46533 1.405721,-0.69563 0.597083,-0.27195 1.196074,-0.54425 1.806956,-0.78214 0.153775,-0.0473 0.560381,-0.0865 0.5749,-0.13885 -0.617419,0.0455 -1.262634,-0.001 -1.840292,0.2633 -0.942931,0.30393 -1.903123,0.65538 -2.655153,1.32358 -0.967268,0.71813 -1.746076,1.71963 -2.074618,2.88988 -0.158664,0.5092 -0.269952,1.03137 -0.409357,1.54584 z"
       id="path28"
       inkscape:label="ceja-1" /><path
       style="display:inline;fill:#010028;fill-opacity:1;stroke:none;stroke-width:0.1;stroke-linecap:round;stroke-linejoin:round;stroke-dasharray:none;stroke-opacity:1"
       d="m 24.885098,152.0756 c 0.340921,0.064 0.741686,-0.0417 1.02376,0.21382 0.331801,0.23318 0.610939,0.47445 0.860452,0.87015 0.144705,0.30121 0.201121,0.41109 0.269416,0.62987 0.149793,0.43714 0.234334,0.89415 0.299021,1.35056 0.04928,0.48266 0.0389,0.96898 0.0443,1.4533 -0.0052,0.0834 -0.03648,0.39299 0.0057,0.14684 0.07352,-0.55063 0.304093,-1.08626 0.234033,-1.65052 -0.04893,-0.90935 -0.282007,-1.80893 -0.673805,-2.63023 -0.298582,-0.48206 -0.914895,-0.7011 -1.460145,-0.58848 -0.212378,0.0297 -0.401876,0.13705 -0.60274,0.20469 z"
       id="path30"
       sodipodi:nodetypes="scccccccccss"
       inkscape:label="ceja-2" /><path
       style="display:inline;fill:#010028;stroke:#ffffff;stroke-width:0.1;stroke-linecap:round;stroke-linejoin:round;stroke-dasharray:none;stroke-opacity:1;fill-opacity:1"
       d="m 19.20869,183.38528 c -0.210179,0.12986 -0.410975,0.27395 -0.607105,0.42399 -0.668574,0.49033 -1.390345,0.96507 -1.825391,1.69264 -0.142308,0.27318 -0.241823,0.57276 -0.287773,0.87803 -0.107381,0.45836 0.108682,0.91046 0.370014,1.27484 l 1.927374,0.49608 1.284917,0.22771 2.000567,0.19517 2.325862,0.0163 1.349976,-0.0488 1.08974,-0.11385 1.528888,-0.26024 1.496359,-0.29276 1.382505,-0.40662 1.236123,-0.45541 0.796973,-0.35783 -1.789124,-0.16265 -1.561418,-0.21144 -1.284917,-0.2765 -1.366241,-0.35782 -1.39877,-0.42289 -1.463829,-0.2765 -1.691536,-0.48794 -1.39877,-0.45542 -0.756312,-0.24397 -0.707518,-0.2521 -0.382222,-0.15452 -0.08132,-0.0569 z"
       id="path13"
       inkscape:label="lengua" /></g><g
     id="g3"
     inkscape:label="lineas"
     style="display:inline"><path
       style="display:inline;fill:none;fill-opacity:1;stroke:#010028;stroke-width:0.2;stroke-linecap:round;stroke-linejoin:round;stroke-dasharray:none;stroke-opacity:1"
       d="m 46.029297,162.02964 c 3.434385,-0.37859 6.955131,-1.08779 9.881895,-3.01834 0.608633,-0.48709 1.15013,-1.05003 1.731152,-1.56833"
       id="path18"
       inkscape:label="ojo-izq" /><path
       style="display:inline;fill:none;fill-opacity:1;stroke:#010028;stroke-width:0.2;stroke-linecap:round;stroke-linejoin:round;stroke-dasharray:none;stroke-opacity:1"
       d="m 75.584107,183.88836 c 0.413192,0.24028 0.773616,0.55958 1.009009,0.91042 0.239059,0.51728 0.323615,0.82311 0.416289,1.40139"
       id="path90"
       sodipodi:nodetypes="ccc" /><path
       style="display:inline;fill:none;fill-opacity:1;stroke:#010028;stroke-width:0.2;stroke-linecap:round;stroke-linejoin:round;stroke-dasharray:none;stroke-opacity:1"
       d="m 84.21898,193.11161 c 0.377902,-0.47887 0.786627,-1.03953 1.427118,-1.15473 0.348056,-0.0776 0.717948,0.0673 1.015287,0.24569 0.454978,0.25645 0.617817,0.78445 0.761751,1.25059"
       id="path92" /><path
       style="display:inline;fill:none;fill-opacity:1;stroke:#010028;stroke-width:0.2;stroke-linecap:round;stroke-linejoin:round;stroke-dasharray:none;stroke-opacity:1"
       d="m 97.507297,190.16769 c -0.05169,-0.45138 0.01813,-0.90386 0.199251,-1.31965 0.12714,-0.49676 0.526946,-0.99845 1.072046,-1.02394 0.52771,0.0152 0.719961,0.6019 1.005762,0.94481"
       id="path94" /><path
       style="display:inline;fill:none;fill-opacity:1;stroke:#010028;stroke-width:0.2;stroke-linecap:round;stroke-linejoin:round;stroke-dasharray:none;stroke-opacity:1"
       d="m 91.928481,192.55861 c 0.307012,-0.38719 0.663783,-0.75068 1.136703,-0.92568 0.424751,-0.20889 0.969645,-0.28128 1.365428,0.0318 0.196138,0.13144 0.352368,0.31107 0.506852,0.48723"
       id="path93" /><path
       style="display:inline;fill:none;fill-opacity:1;stroke:#010028;stroke-width:0.2;stroke-linecap:round;stroke-linejoin:round;stroke-dasharray:none;stroke-opacity:1"
       d="m 76.916099,189.43578 c 0.329463,-0.38544 0.634442,-0.83392 1.163504,-0.94533 0.562955,-0.11203 1.101525,0.33657 1.278919,0.85019 0.174143,0.40095 0.07165,0.8866 0.127406,1.31497"
       id="path91"
       sodipodi:nodetypes="cccc" /><path
       style="display:inline;fill:none;fill-opacity:1;stroke:#010028;stroke-width:0.2;stroke-linecap:round;stroke-linejoin:round;stroke-dasharray:none;stroke-opacity:1"
       d="m 5.2214218,171.08782 c 0.3762107,0.0953 0.7758109,0.21803 0.9421948,0.60849 0.2467782,0.41932 0.3220401,0.94865 0.7402993,1.25299 0.5519835,0.50928 1.362981,0.73995 1.7057645,1.45933 l 0.0444,0.0865 0.040623,0.089"
       id="path108" /><path
       style="display:inline;fill:none;fill-opacity:1;stroke:#010028;stroke-width:0.2;stroke-linecap:round;stroke-linejoin:round;stroke-dasharray:none;stroke-opacity:1"
       d="m 164.35978,181.45016 c 0.14373,-0.45494 0.29297,-0.91362 0.53551,-1.32726 0.25601,-0.18727 0.54859,-0.41606 0.88755,-0.34351 0.47706,0.0676 0.87503,0.37034 1.25271,0.64779 0.31117,0.24967 0.5912,0.54346 0.77739,0.89924 0.0489,0.0796 0.0977,0.1592 0.14663,0.2388"
       id="path96" /><path
       style="display:inline;fill:none;fill-opacity:1;stroke:#010028;stroke-width:0.2;stroke-linecap:round;stroke-linejoin:round;stroke-dasharray:none;stroke-opacity:1"
       d="m 171.54786,180.11605 c -0.027,-0.66037 0.0812,-1.48349 0.737,-1.81692 0.48381,-0.31568 1.09758,-0.2455 1.62076,-0.0809"
       id="path97" /><path
       style="display:inline;fill:none;fill-opacity:1;stroke:#010028;stroke-width:0.2;stroke-linecap:round;stroke-linejoin:round;stroke-dasharray:none;stroke-opacity:1"
       d="m 174.90613,175.92971 c -0.0617,-0.77036 0.23791,-1.71175 1.02266,-2.00097 0.20818,-0.0723 0.43149,-0.0361 0.64498,-0.0806"
       id="path98" /><path
       style="display:inline;fill:none;fill-opacity:1;stroke:#010028;stroke-width:0.2;stroke-linecap:round;stroke-linejoin:round;stroke-dasharray:none;stroke-opacity:1"
       d="m 158.68982,180.7026 c 0.48576,-0.93782 1.5753,-1.38756 2.46392,-0.58994 0.24819,0.17614 0.41177,0.43198 0.57236,0.68185"
       id="path95"
       sodipodi:nodetypes="ccc" /><path
       style="display:inline;fill:none;fill-opacity:1;stroke:#010028;stroke-width:0.5;stroke-linecap:round;stroke-linejoin:round;stroke-dasharray:none;stroke-opacity:1"
       d="m 20.477346,168.25905 c -0.63128,-0.9385 -0.781821,-2.10634 -0.738295,-3.21331 0.02812,-0.68715 0.105006,-1.3729 0.209015,-2.05194 0.03125,-0.12744 0.06839,-0.25307 0.106389,-0.37863"
       id="path107" /><path
       style="display:inline;fill:none;fill-opacity:1;stroke:#010028;stroke-width:0.2;stroke-linecap:round;stroke-linejoin:round;stroke-dasharray:none;stroke-opacity:1"
       d="m 25.946096,160.875 c -0.678648,-0.0181 -1.4311,-0.12849 -1.929409,-0.63253 -0.336007,-0.42924 -0.567531,-0.9407 -0.700087,-1.46785 -0.06457,-0.2914 -0.0852,-0.59239 -0.06174,-0.88991"
       id="path19" /></g><path
     style="fill:url(#linearGradient10);fill-opacity:1;fill-rule:nonzero;stroke:none;stroke-width:0.0765089"
     d="m 24.729849,201.26215 c 0,1.09858 -0.23255,2.0873 -0.70989,2.9799 -0.4651,0.89259 -1.10155,1.60667 -1.90935,2.15596 -0.80781,0.53556 -1.70128,0.8102 -2.6682,0.8102 h -8.38401 v -2.70525 h 8.38401 c 0.5263,0 1.00364,-0.15105 1.43202,-0.43943 0.42837,-0.28838 0.77108,-0.67288 1.02811,-1.16724 0.25703,-0.50809 0.37942,-1.04365 0.37942,-1.63414 0,-0.59048 -0.12239,-1.12604 -0.37942,-1.60667 -0.25703,-0.48063 -0.59974,-0.86513 -1.02811,-1.1535 -0.42838,-0.28838 -0.90572,-0.4257 -1.43202,-0.4257 H 10.33628 v 13.69103 H 7.8883897 V 195.3573 H 19.442409 c 0.96692,0 1.86039,0.26091 2.6682,0.79646 0.8078,0.52183 1.44425,1.23591 1.90935,2.14223 0.47734,0.8926 0.70989,1.89505 0.70989,2.96616 z m 15.82558,10.50516 H 26.541279 V 195.3573 h 2.44789 v 13.69103 h 11.56626 z m 16.87817,0 h -9.38764 c -1.01587,0 -1.94607,-0.21972 -2.76611,-0.63169 -0.83228,-0.42569 -1.54217,-1.01618 -2.12966,-1.77145 -0.59973,-0.75527 -1.05259,-1.63414 -1.38306,-2.62286 -0.31822,-0.98872 -0.47733,-2.0461 -0.47733,-3.19961 0,-1.11231 0.15911,-2.16969 0.47733,-3.15841 0.31823,-0.98872 0.78333,-1.85385 1.37082,-2.60912 0.58749,-0.76901 1.30962,-1.35949 2.12966,-1.78519 0.83228,-0.4257 1.76248,-0.63168 2.77835,-0.63168 h 9.38764 v 2.71898 h -9.38764 c -0.89348,0 -1.65232,0.24718 -2.28877,0.7278 -0.64869,0.48063 -1.13827,1.13978 -1.49321,1.97744 -0.34271,0.82394 -0.5263,1.744 -0.5263,2.76018 0,1.02992 0.18359,1.96371 0.53854,2.78765 0.3427,0.82393 0.84452,1.48308 1.48097,1.97744 0.63645,0.49436 1.39529,0.74154 2.28877,0.74154 h 9.38764 z m 17.20864,-13.69103 h -12.70453 v 13.69103 h -2.44788 V 195.3573 h 15.15241 z m -1.75024,6.83865 h -10.35456 v -2.71898 h 10.35456 z m 14.7118,-3.41933 h -7.83324 c -0.36718,0 -0.67317,0.15106 -0.93019,0.43943 -0.25703,0.28838 -0.39166,0.63169 -0.39166,1.04365 v 8.78863 h -2.44789 v -8.78863 c 0,-0.78273 0.17135,-1.48308 0.50182,-2.11476 0.3427,-0.63168 0.79556,-1.13977 1.37081,-1.52428 0.57526,-0.37077 1.19947,-0.56302 1.89711,-0.56302 h 7.83324 z m 14.356851,10.27171 H 91.581619 c -0.68542,0 -1.32187,-0.19225 -1.89712,-0.56302 -0.56301,-0.3845 -1.01587,-0.8926 -1.35857,-1.52428 -0.34271,-0.63168 -0.51406,-1.34576 -0.51406,-2.14223 0,-0.78274 0.17135,-1.48308 0.51406,-2.11476 0.33046,-0.63168 0.78332,-1.13978 1.35857,-1.52428 0.57525,-0.37077 1.2117,-0.56302 1.89712,-0.56302 h 7.33141 v 2.73272 h -7.33141 c -0.35495,0 -0.67318,0.13732 -0.9302,0.42569 -0.25703,0.28838 -0.39167,0.64542 -0.39167,1.04365 0,0.4257 0.13464,0.78274 0.39167,1.07112 0.25702,0.28837 0.57525,0.43943 0.9302,0.43943 h 7.93114 v -6.06965 c 0,-0.39823 -0.13463,-0.75527 -0.39166,-1.04365 -0.25703,-0.28837 -0.56301,-0.43943 -0.9302,-0.43943 h -8.33504 v -2.71898 h 8.33504 c 0.7099,0 1.34634,0.19225 1.909351,0.56302 0.56302,0.38451 1.01588,0.8926 1.35859,1.52428 0.33046,0.63168 0.50181,1.33203 0.50181,2.11476 z m 4.92026,0 h -2.44789 v -12.99069 h 10.91758 c 0.8078,0 1.55441,0.16479 2.25205,0.50809 0.69765,0.34331 1.30962,0.81021 1.83592,1.41442 0.52629,0.59049 0.94243,1.2771 1.23618,2.05984 0.29375,0.78273 0.44062,1.6204 0.44062,2.49926 v 6.50908 h -2.44789 v -6.50908 c 0,-0.68661 -0.14687,-1.30456 -0.44062,-1.88131 -0.29374,-0.56302 -0.69764,-1.01619 -1.19946,-1.35949 -0.50181,-0.34331 -1.06483,-0.52183 -1.6768,-0.52183 h -1.35858 v 10.27171 h -2.44789 V 201.4956 h -4.66322 z m 30.02332,-8.78863 c 0,0.76901 -0.17135,1.48308 -0.50182,2.1285 -0.3427,0.63168 -0.79556,1.13977 -1.35858,1.52427 -0.57525,0.38451 -1.19946,0.57676 -1.90934,0.57676 h -7.57621 c 0.25703,0.4257 0.64869,0.83767 1.17499,1.2359 0.53853,0.39823 1.12603,0.60422 1.78695,0.60422 h 6.85408 v 2.71898 h -6.85408 c -0.79556,0 -1.5544,-0.16479 -2.23981,-0.50809 -0.69765,-0.34331 -1.30963,-0.8102 -1.83592,-1.41442 -0.52629,-0.59049 -0.94243,-1.2771 -1.23618,-2.05984 -0.29375,-0.78274 -0.44061,-1.63413 -0.44061,-2.52673 0,-0.89259 0.14686,-1.73026 0.44061,-2.49926 0.29375,-0.78274 0.69765,-1.46935 1.22394,-2.05984 0.5263,-0.60421 1.13827,-1.07111 1.83592,-1.41442 0.69765,-0.3433 1.45649,-0.50809 2.25205,-0.50809 h 4.61427 c 0.70988,0 1.34633,0.19225 1.90934,0.56302 0.57526,0.38451 1.02812,0.8926 1.35858,1.52428 0.33047,0.63168 0.50182,1.33203 0.50182,2.11476 z m -3.76974,1.49682 c 0.36718,0 0.67316,-0.13733 0.93019,-0.43944 0.25703,-0.28837 0.39166,-0.64541 0.39166,-1.05738 0,-0.39823 -0.13463,-0.75527 -0.39166,-1.04365 -0.25703,-0.28837 -0.56301,-0.43943 -0.93019,-0.43943 h -4.61427 c -0.55077,0 -1.06482,0.15106 -1.54216,0.43943 -0.4651,0.28838 -0.84452,0.67288 -1.15051,1.15351 -0.30599,0.48063 -0.50182,0.94752 -0.57525,1.38696 z m 22.33695,0.78273 c 0,0.8926 -0.14687,1.73026 -0.44062,2.513 -0.29374,0.78274 -0.70988,1.48308 -1.23618,2.07357 -0.52629,0.60422 -1.13826,1.07111 -1.83591,1.41442 -0.69765,0.3433 -1.44426,0.50809 -2.23981,0.50809 h -5.64238 c -0.79557,0 -1.54217,-0.16479 -2.23982,-0.50809 -0.69765,-0.34331 -1.30962,-0.8102 -1.83591,-1.41442 -0.5263,-0.59049 -0.94244,-1.2771 -1.23618,-2.05984 -0.29375,-0.78274 -0.44063,-1.63413 -0.44063,-2.52673 v -6.48161 h 2.44789 v 6.48161 c 0,0.70035 0.14688,1.33203 0.45286,1.89505 0.30599,0.57675 0.69765,1.02992 1.19947,1.35949 0.50181,0.34331 1.00363,0.52183 1.51768,0.53556 h 1.738 v -10.27171 h 2.43565 v 10.27171 h 1.738 c 0.51405,-0.0137 1.01587,-0.19225 1.52993,-0.53556 0.50181,-0.32957 0.90571,-0.78274 1.19946,-1.35949 0.29375,-0.56302 0.44062,-1.1947 0.44062,-1.89505 v -6.48161 h 2.44788 z m 16.26621,0 c 0,0.8926 -0.15911,1.73026 -0.45286,2.513 -0.29375,0.78274 -0.70989,1.48308 -1.23619,2.07357 -0.52629,0.60422 -1.13826,1.07111 -1.82367,1.41442 -0.69764,0.3433 -1.44425,0.50809 -2.25205,0.50809 h -3.1333 c -0.79556,0 -1.5544,-0.16479 -2.23981,-0.50809 -0.69765,-0.34331 -1.30963,-0.8102 -1.83592,-1.41442 -0.5263,-0.59049 -0.94243,-1.2771 -1.23618,-2.05984 -0.29375,-0.78274 -0.44062,-1.63413 -0.44062,-2.52673 0,-0.89259 0.14687,-1.73026 0.44062,-2.49926 0.29375,-0.78274 0.69765,-1.46935 1.22394,-2.05984 0.5263,-0.60421 1.13827,-1.07111 1.83592,-1.41442 0.69765,-0.3433 1.45649,-0.50809 2.25205,-0.50809 h 3.1333 c 0.79556,0 1.55441,0.16479 2.25205,0.50809 0.69765,0.34331 1.30962,0.81021 1.83592,1.41442 0.52629,0.59049 0.93019,1.2771 1.22394,2.05984 0.30598,0.78273 0.45286,1.6204 0.45286,2.49926 z m -2.44789,0 c 0,-0.68661 -0.14687,-1.30456 -0.45286,-1.88131 -0.29375,-0.56302 -0.6854,-1.01619 -1.18722,-1.35949 -0.51406,-0.34331 -1.06483,-0.52183 -1.6768,-0.52183 h -3.1333 c -0.61196,0 -1.16274,0.17852 -1.66456,0.52183 -0.48958,0.3433 -0.89348,0.79647 -1.18723,1.35949 -0.30598,0.56302 -0.45285,1.1947 -0.45285,1.88131 0,0.70035 0.14687,1.33203 0.45285,1.89505 0.30599,0.57675 0.69765,1.02992 1.19947,1.37322 0.48958,0.34331 1.04036,0.52183 1.65232,0.52183 h 3.1333 c 0.61197,0 1.16274,-0.17852 1.66456,-0.52183 0.50181,-0.3433 0.90571,-0.79647 1.19946,-1.37322 0.29375,-0.56302 0.45286,-1.1947 0.45286,-1.89505 z m 15.78887,-3.76263 h -7.83323 c -0.36719,0 -0.67317,0.15106 -0.93021,0.43943 -0.25702,0.28838 -0.39165,0.63169 -0.39165,1.04365 v 8.78863 h -2.44789 v -8.78863 c 0,-0.78273 0.17135,-1.48308 0.50181,-2.11476 0.34271,-0.63168 0.79557,-1.13977 1.37082,-1.52428 0.57526,-0.37077 1.19947,-0.56302 1.89712,-0.56302 h 7.83323 z m 14.90763,10.27171 H 196.804 l -5.86268,-5.3693 -2.15414,2.0461 v 3.3232 h -2.44789 v -17.54979 h 2.44789 v 11.46641 l 7.11111,-6.90731 h 3.05985 l -6.32779,6.04218 z"
     id="path1-8" /></svg>
