<?xml version="1.0" encoding="UTF-8" standalone="no"?>
<!-- Created with Inkscape (http://www.inkscape.org/) -->

<svg
   width="302.45795"
   height="305.49561"
   viewBox="0 0 80.02533 80.829045"
   version="1.1"
   id="svg1"
   inkscape:version="1.4.3 (0d15f75, 2025-12-25)"
   sodipodi:docname="nuevo-ornitorrinco.svg"
   xmlns:inkscape="http://www.inkscape.org/namespaces/inkscape"
   xmlns:sodipodi="http://sodipodi.sourceforge.net/DTD/sodipodi-0.dtd"
   xmlns="http://www.w3.org/2000/svg"
   xmlns:svg="http://www.w3.org/2000/svg">
  <sodipodi:namedview
     id="namedview1"
     pagecolor="#ffffff"
     bordercolor="#000000"
     borderopacity="0.25"
     inkscape:showpageshadow="2"
     inkscape:pageopacity="0.0"
     inkscape:pagecheckerboard="true"
     inkscape:deskcolor="#d1d1d1"
     inkscape:document-units="mm"
     inkscape:zoom="1.4142136"
     inkscape:cx="49.14392"
     inkscape:cy="242.18407"
     inkscape:window-width="1920"
     inkscape:window-height="1009"
     inkscape:window-x="-8"
     inkscape:window-y="-8"
     inkscape:window-maximized="1"
     inkscape:current-layer="layer1" />
  <defs
     id="defs1">
    <pattern
       id="EMFhbasepattern"
       patternUnits="userSpaceOnUse"
       width="6"
       height="6"
       x="0"
       y="0" />
  </defs>
  <g
     inkscape:groupmode="layer"
     id="layer1"
     inkscape:label="body"
     transform="translate(-28.91825,-44.470835)">
    <path
       id="path1"
       style="display:inline;fill:#e22d50;fill-opacity:1;fill-rule:evenodd;stroke:none;stroke-width:0.0661458;stroke-dasharray:none;stroke-opacity:1"
       inkscape:label="bill"
       d="m 50.248096,69.682052 c -0.470599,0.01453 -0.940113,0.109194 -1.389063,0.294555 -1.791034,0.689459 -2.4031,2.698688 -3.851961,3.796668 -3.333202,2.343719 -7.197653,3.760846 -11.013798,5.110799 -0.806201,0.334675 -1.610048,0.676487 -2.430343,0.975651 -1.155693,0.395905 -2.661174,1.06174 -2.634464,2.504757 -0.09757,1.094752 0.517265,2.037852 1.264522,2.77244 1.77168,1.736092 4.314106,2.212206 6.624402,2.826184 2.114631,0.336584 4.371085,0.362308 6.400126,-0.419096 2.086505,-0.72668 3.996938,-1.854987 5.756755,-3.178617 2.032733,-1.483647 4.166625,-2.841657 6.505029,-3.7946 0.961612,-0.566406 2.197464,-0.60347 3.018937,-1.399398 0.986736,-1.137969 -0.02721,-2.549539 -1.166337,-3.056661 C 56.123905,75.48151 55.258508,74.371282 54.812158,73.09373 54.344541,71.056214 52.287356,69.619074 50.248096,69.682052 Z M 34.249589,80.853979 a 0.95189297,0.53210908 0 0 1 0.95188,0.532268 0.95189297,0.53210908 0 0 1 -0.95188,0.532267 0.95189297,0.53210908 0 0 1 -0.95188,-0.532267 0.95189297,0.53210908 0 0 1 0.95188,-0.532268 z m 2.985864,1.662431 a 0.95189297,0.53210908 0 0 1 0.95188,0.532268 0.95189297,0.53210908 0 0 1 -0.95188,0.532267 0.95189297,0.53210908 0 0 1 -0.95188,-0.532267 0.95189297,0.53210908 0 0 1 0.95188,-0.532268 z" />
    <path
       style="display:inline;fill:#b11a39;fill-opacity:1;fill-rule:evenodd;stroke:none;stroke-width:0.0661458;stroke-dasharray:none;stroke-opacity:1"
       d="m 29.011094,81.760107 c 0.02401,0.751971 0.571606,1.327937 1.135484,1.76432 0.799838,0.733415 1.830079,1.148763 2.792084,1.628453 1.686023,0.691576 3.45526,1.206981 5.280084,1.331017 1.023706,0.178584 2.060874,-0.0066 3.083827,-0.08469 0.954931,-0.288866 1.917059,-0.55961 2.788307,-1.059143 1.333438,-0.611973 2.508213,-1.508693 3.778704,-2.236294 1.398787,-0.839895 2.74871,-1.759771 4.129913,-2.624761 1.490721,-0.849239 3.104574,-1.490682 4.7694,-1.897461 0.676854,-0.122325 1.380927,-0.160556 2.060779,-0.05525 -0.217941,0.975852 -1.325595,1.260794 -2.149977,1.547899 -1.142133,0.38176 -2.216445,0.947547 -3.294058,1.481988 -2.197521,1.094309 -4.105003,2.652539 -6.138984,4.006101 -1.906851,1.164837 -3.969757,2.200961 -6.204313,2.521659 -1.974403,0.25779 -3.991003,0.02845 -5.889236,-0.553618 -2.047345,-0.544732 -4.253419,-1.322389 -5.574759,-3.083793 -0.584825,-0.773357 -0.800413,-1.739738 -0.567255,-2.686429 z"
       id="path3"
       inkscape:label="bill-shadow" />
    <path
       id="path12"
       style="display:inline;fill:#e22d50;fill-opacity:1;fill-rule:evenodd;stroke:none;stroke-width:0.0264583;stroke-dasharray:none;stroke-opacity:1"
       inkscape:label="body"
       d="m 66.12568,58.439327 c -3.206898,-0.06342 -6.253624,1.09205 -9.140011,2.375049 -2.851179,1.511083 -5.152891,3.817964 -7.084839,6.371187 -0.45726,0.653962 1.570493,0.137479 2.139921,0.350883 1.41621,0.03957 2.590425,1.164297 3.486092,2.182296 1.131978,1.104355 1.351765,2.733834 2.294434,3.944462 1.472034,0.950739 3.339338,2.046466 3.316593,4.034379 0.15839,1.00563 -0.114173,1.996053 -0.699182,2.776058 -0.479496,1.163559 0.21794,1.708813 1.254704,2.075842 2.093057,1.093895 4.498997,1.424509 6.726204,2.191081 l 9.691915,2.828768 c 0.782972,-1.83255 0.548912,-3.879656 0.545187,-5.798096 0.779496,0.234449 0.959881,1.437887 1.261938,2.154907 0.76729,2.698537 0.251606,5.794003 -1.666048,7.903911 -1.40783,2.076174 -3.302709,4.040054 -3.623035,6.629569 1.552582,0.824317 2.925127,2.309577 3.013253,4.140317 0.69284,-0.64851 1.591767,-1.07964 2.605009,-0.9493 1.428862,-0.24723 2.836214,0.1756 3.954797,1.0449 0.450102,-1.85584 2.154245,-3.185497 3.855062,-3.870564 -1.527194,-1.606556 -3.428913,-3.478031 -3.410644,-5.83427 0.02361,-2.585829 3.188831,-3.411681 3.74189,-5.797579 0.62201,-1.105089 0.688879,-2.381473 1.051099,-3.576009 1.010778,0.875037 0.581262,2.747101 0.455269,4.049882 0.907154,1.790628 1.785223,3.591695 2.109432,5.591907 l 2.739884,11.031373 c 1.540231,-1.76885 2.698096,-3.84132 3.643189,-5.965016 0.96045,-0.658813 0.23017,1.378778 0.06976,1.917716 -1.058445,3.35993 -2.797835,6.53752 -5.208984,9.10383 -2.945625,2.76857 -6.590426,4.63723 -10.37301,5.98465 2.949619,-0.74005 5.992226,-1.29809 8.884212,-2.15129 2.109108,-1.88343 4.368901,-3.65535 6.384623,-5.60792 1.241623,-2.88372 2.607686,-5.73356 3.772386,-8.638237 0.28526,-2.46222 0.5705,-4.924408 0.85576,-7.386629 0.94561,-0.655617 1.69504,-0.175734 2.34663,0.608748 0.0829,-2.481308 -0.94153,-4.798569 -1.58595,-7.154602 -1.29427,-4.139634 -3.54697,-7.956969 -6.238387,-11.342977 -0.251285,-0.39634 -1.810949,-1.721809 -0.698148,-1.64176 2.464566,0.963253 4.806315,2.190242 7.123595,3.451985 C 100.3598,72.40884 96.226158,70.387656 92.278605,68.202555 86.478209,65.583432 81.653776,60.921571 75.364392,59.406193 72.377307,58.447343 69.234275,58.393434 66.12568,58.439327 Z m -1.870171,9.237679 c 0.418366,-0.03204 0.841941,-0.02003 1.258838,5.17e-4 0.981808,0.02036 2.055707,0.07672 2.851506,0.725537 0.418678,0.29712 -0.185367,0.339876 -0.418579,0.276986 -0.29535,-0.01205 -0.588668,0.08162 -0.884701,0.10697 -0.526948,0.08188 -1.159937,0.193119 -1.42782,0.717269 0.02927,0.62241 0.05473,1.327875 -0.37517,1.832446 -0.561131,0.70139 -1.568705,0.961594 -2.410706,0.673344 -0.32474,-0.107763 -0.632613,-0.286817 -0.838192,-0.563273 -0.437878,-0.361139 -1.029581,-0.134695 -1.538924,-0.163815 0.178899,-0.841218 0.600832,-1.617398 1.148767,-2.274796 0.36456,-0.473293 0.841131,-0.866271 1.4087,-1.068152 0.394861,-0.155307 0.807916,-0.230995 1.226281,-0.263033 z" />
    <path
       style="display:inline;fill:#b11a39;fill-opacity:1;fill-rule:evenodd;stroke:none;stroke-width:0.0264583;stroke-dasharray:none;stroke-opacity:1"
       d="m 53.315917,83.893685 c 1.826434,-0.797016 3.688771,-1.514551 5.563865,-2.175038 0.703174,-0.378277 1.377412,-0.868226 1.718614,-1.614676 2.379619,0.564284 4.806569,1.04982 7.256955,0.995286 1.875725,-0.336002 3.698356,-0.836414 5.271055,-1.954885 1.261401,-1.471599 2.504918,-3.097409 2.908594,-5.029203 0.09477,-1.323577 0.188085,0.383285 0.281988,0.864031 0.11056,0.988961 0.212234,2.045929 0.03286,3.010779 -0.612083,1.584002 -1.493496,3.072013 -2.800554,4.179639 -0.96675,0.624818 0.340861,0.906422 0.828291,1.311797 1.381748,0.74556 2.472338,1.922363 3.433081,3.144749 0.456578,0.703222 0.220471,1.334016 -0.271524,1.938055 -1.428481,2.406736 -3.374117,4.526877 -4.442387,7.136989 -0.450164,1.266555 -0.821315,2.566307 -0.847908,3.919842 0.925045,0.41909 1.971699,0.85909 2.55092,1.70907 0.605906,1.3901 1.173992,2.79251 1.727424,4.20241 0.549611,0.0807 1.145167,-0.67634 1.74501,-0.89623 1.981393,-1.47223 4.787636,-0.81835 6.531704,0.7205 0.693197,0.60073 0.834248,-0.67588 0.961729,-1.1324 0.632963,-1.66246 1.986066,-2.92535 3.621006,-3.57817 0.593234,-0.41845 1.442416,-0.4413 1.907745,-1.00219 -0.581311,-1.359051 -1.952718,-2.319534 -2.684476,-3.64287 -0.59658,-1.082465 -1.887483,-1.892699 -1.777889,-3.257688 0.786834,-1.218982 2.030902,-2.11738 2.599211,-3.496281 0.413682,-0.449213 0.318656,-1.500333 0.576701,-1.725703 1.672748,1.027632 2.872812,2.623598 3.673477,4.393804 1.31749,2.466273 1.871066,5.294377 1.627243,8.077722 -0.09694,1.383606 -0.135701,2.827966 -0.454479,4.156296 -1.919415,2.42921 -4.447504,4.30926 -7.067579,5.91744 -3.599379,1.88724 -7.605831,3.11394 -11.689695,3.18506 -1.860519,0.12588 -3.721524,0.24101 -5.573447,-0.0498 -2.011249,-0.13119 -3.962068,-0.63194 -5.860801,-1.28311 -0.745194,-0.0717 -1.624928,-0.39958 -0.616007,-0.96954 2.020539,-1.94847 4.073142,-3.98165 5.136119,-6.63747 0.688826,-1.39087 1.174929,-2.86184 1.186946,-4.423066 0.138688,-2.030645 0.121159,-4.079131 -0.284285,-6.081094 -0.544452,-1.838804 -1.506178,-3.55255 -2.807884,-4.950985 -1.885531,-1.470157 -3.913686,-2.805908 -6.214736,-3.519996 -2.507465,-0.827322 -5.095742,-1.407752 -7.746885,-1.443064 z"
       id="path10"
       inkscape:label="body-shadow" />
    <path
       style="display:inline;fill:#b11a39;fill-opacity:1;fill-rule:evenodd;stroke:none;stroke-width:0.0264583;stroke-dasharray:none;stroke-opacity:1"
       d="m 72.064824,116.11338 c 3.911508,1.3366 8.090698,1.34533 12.166055,1.03393 2.004029,-0.46676 4.079916,-0.77296 5.856259,-1.89408 4.398088,-2.05534 7.890111,-5.58865 10.909252,-9.30947 1.05879,-1.68771 2.56226,-3.19014 2.96738,-5.20777 1.23575,-2.754571 1.4959,-5.82483 1.17665,-8.803879 -0.56314,-4.518029 -2.52778,-8.817936 -5.251679,-12.444672 -0.622107,-0.72448 -2.118136,-2.675063 -2.468179,-2.490409 2.251353,4.355953 3.617208,9.181631 3.925668,14.077586 0.0605,4.362049 -0.14656,8.997574 -2.434887,12.839764 -2.139597,4.06511 -5.761963,7.26587 -9.860548,9.26615 -4.705404,1.9301 -9.782601,3.00435 -14.879772,2.85815 -0.702152,0.0225 -1.404046,0.0523 -2.106199,0.0747 z"
       id="path11"
       inkscape:label="back-shadow"
       sodipodi:nodetypes="ccccccccccccc" />
    <path
       style="display:inline;fill:#b11a39;fill-opacity:1;fill-rule:evenodd;stroke:#0000ff;stroke-width:0.0264583;stroke-dasharray:none;stroke-opacity:1"
       d="m 54.275537,97.165736 c 0.477446,-0.876307 0.931041,-1.76692 1.511951,-2.581169 0.313244,-0.462148 0.57609,-0.965639 1.01606,-1.323832 0.745522,-0.764768 1.551759,-1.472117 2.411333,-2.104004 0.543631,-0.365573 1.138788,-0.670429 1.558407,-1.18623 0.566807,-0.555584 1.070935,-1.17865 1.471988,-1.864242 0.581889,0.295421 1.223802,0.491604 1.714707,0.937446 0.661726,0.45773 1.216895,1.044457 1.781472,1.611832 0.37444,0.508539 0.822888,0.968838 1.148462,1.509228 0.170429,0.322436 0.340859,0.644872 0.511289,0.967308 -0.424039,0.409255 -0.861386,0.807031 -1.173692,1.31266 -0.420212,0.680942 -0.596203,1.515122 -0.462756,2.307255 0.187559,0.823919 0.505617,1.625582 0.88478,2.379567 0.152968,0.212182 0.305936,0.424363 0.458904,0.636545 -0.465178,-0.03189 -0.926155,-0.01238 -1.379125,0.105082 -0.31525,0.07447 -0.527947,0.376118 -0.800354,0.545498 -0.480409,0.42333 -0.976783,0.87754 -1.194571,1.49676 -0.07987,0.27228 -0.178577,0.46068 -0.388613,0.15337 -0.316974,-0.26314 -0.514857,-0.65002 -0.902022,-0.82926 -0.305766,-0.20192 -0.629876,-0.40602 -0.974675,-0.52193 -0.39971,-0.0468 -0.827539,-0.1371 -1.217328,-0.0254 -0.599214,0.2704 -1.251437,0.46275 -1.747376,0.91384 -0.06316,-0.52257 -0.2101,-1.02352 -0.417247,-1.50666 -0.317195,-0.874472 -0.769296,-1.731448 -1.499101,-2.330522 -0.242421,-0.270774 -0.612556,-0.364071 -0.940894,-0.48817 -0.451438,-0.1295 -0.90647,-0.12453 -1.371599,-0.114952 z"
       id="path8"
       inkscape:label="leg-r" />
    <path
       style="display:inline;fill:#e22d50;fill-opacity:1;fill-rule:evenodd;stroke:none;stroke-width:0.0264583;stroke-dasharray:none;stroke-opacity:1"
       d="m 57.788727,99.345217 0.276503,-1.219859 0.2765,-1.284917 0.422884,-1.057209 0.390355,-0.992153 0.178912,-0.487942 -0.02439,-0.101655 -0.101653,-0.04473 -0.158583,0.02846 -0.134184,0.109786 -0.768511,0.618061 -0.601795,0.471678 -0.561136,0.43915 -0.878298,0.699387 -0.390353,0.292764 -0.276502,0.187044 -0.317162,0.154517 0.439148,0.09759 0.166714,0.04676 0.640426,0.272436 0.587566,0.528606 0.439147,0.557067 z"
       id="path9"
       inkscape:label="leg-r-shadow" />
    <path
       style="display:inline;fill:#b11a39;fill-opacity:1;fill-rule:evenodd;stroke:none;stroke-width:0.0264583;stroke-dasharray:none;stroke-opacity:1"
       d="m 84.41035,102.05475 c -0.07455,0.21155 -0.152668,0.4223 -0.20878,0.63965 -0.555452,-0.43766 -1.20173,-0.76044 -1.882555,-0.94941 -0.117372,0.007 -0.121858,-0.10671 -0.151988,-0.19279 -0.20288,-0.63632 -0.418304,-1.26927 -0.609472,-1.908953 -0.07882,-0.354961 -0.17518,-0.707184 -0.243016,-1.06386 -0.02811,-0.395513 -0.07871,-0.79025 -0.0587,-1.187424 -0.0076,-0.429717 0.03508,-0.858351 0.103543,-1.282228 0.0791,0.269339 0.131259,0.548158 0.228084,0.811263 0.198735,0.435558 0.368851,0.885167 0.611443,1.299194 0.266863,0.500936 0.541804,0.997304 0.836049,1.482756 0.461012,0.782432 0.916722,1.567992 1.375388,2.351802 z"
       id="path13"
       inkscape:label="leg-l-shadow-2" />
    <path
       style="display:inline;fill:#b11a39;fill-opacity:1;fill-rule:evenodd;stroke:none;stroke-width:0.0264583;stroke-dasharray:none;stroke-opacity:1"
       d="m 78.572981,101.939 c -0.282249,0.1612 -0.561094,0.33013 -0.801752,0.55083 -0.07555,0.0644 -0.170895,0.18257 -0.144861,0.007 -0.02645,-0.5135 -0.181672,-1.01529 -0.397041,-1.4796 -0.171585,-0.35188 -0.386361,-0.68137 -0.631138,-0.98663 0.230221,-0.993376 0.455877,-1.987757 0.660141,-2.986845 0.102662,-0.317925 0.177799,-0.646314 0.298454,-0.957399 0.188173,-0.402637 0.360932,-0.816819 0.627587,-1.175805 0.03993,1.02385 0.05358,2.049001 0.132501,3.070921 0.08552,1.319006 0.170739,2.638028 0.256109,3.957048 z"
       id="path14"
       inkscape:label="leg-l-shadow-1" />
  </g>
  <g
     inkscape:groupmode="layer"
     id="layer2"
     inkscape:label="hexagon"
     transform="translate(-28.91825,-44.470835)">
    <path
       id="path4"
       style="display:inline;fill:none;fill-rule:evenodd;stroke:#b11a39;stroke-width:4.67539;stroke-dasharray:none;stroke-opacity:1"
       d="m 106.60397,85.343624 v 18.399326 0 L 73.941673,122.60054 41.279363,103.74295 V 89.679724"
       inkscape:label="bottom" />
    <path
       id="path15"
       style="display:inline;fill:none;fill-rule:evenodd;stroke:#e22d50;stroke-width:4.67539;stroke-dasharray:none;stroke-opacity:1"
       d="M 41.279363,73.09661 V 66.027766 L 73.941674,47.170173 106.60397,66.027767 v 18.374316 0.941541"
       inkscape:label="top" />
    <path
       style="fill:#e22d50;fill-rule:evenodd;stroke:#e22d50;stroke-width:0.0661458;stroke-dasharray:none;stroke-opacity:1"
       d="m 43.585781,73.104572 -1.642841,1.01762 -1.566868,0.818512 -1.239461,0.502801 -0.190012,0.06723 0.03186,-2.753211 2.707234,-0.02681 1.892207,-0.001 z"
       id="path7"
       sodipodi:nodetypes="ccccccccc"
       inkscape:label="shadow-3" />
    <path
       style="fill:#b11a39;fill-opacity:1;fill-rule:evenodd;stroke:none;stroke-width:0.0264583"
       d="m 38.943674,89.751976 -0.0025,-0.186911 c 0,0 0.639476,0.03881 1.283618,-0.0052 0.659192,-0.04507 1.315394,-0.124474 1.339051,-0.127428 0.02422,-0.003 0.582359,-0.09658 1.099048,-0.249911 0.481157,-0.14279 0.953863,-0.281504 0.953863,-0.281504 l 2.92e-4,0.892234 z"
       id="path2"
       sodipodi:nodetypes="ccscsccc"
       inkscape:label="shadow-2" />
    <path
       style="fill:#b11a39;fill-opacity:1;fill-rule:evenodd;stroke:none;stroke-width:0.088848"
       d="m 104.26971,85.531147 -0.002,-8.457692 c 0,0 4.07663,-1.941293 4.67558,-1.138038 l 2.9e-4,10.061231 z"
       id="path2-5"
       sodipodi:nodetypes="ccccc"
       inkscape:label="shadow-1" />
  </g>
</svg>
