<?xml version="1.0" encoding="UTF-8" standalone="no"?>
<!-- Created with Inkscape (http://www.inkscape.org/) -->

<svg
   width="64"
   height="64"
   viewBox="0 0 16.933333 16.933332"
   version="1.1"
   id="svg5"
   xml:space="preserve"
   inkscape:version="1.4 (86a8ad7, 2024-10-11)"
   sodipodi:docname="om-3-maintMode-64x64.svg"
   inkscape:export-filename="..\png\rfid-36x30-nb-595257.png"
   inkscape:export-xdpi="96"
   inkscape:export-ydpi="96"
   xmlns:inkscape="http://www.inkscape.org/namespaces/inkscape"
   xmlns:sodipodi="http://sodipodi.sourceforge.net/DTD/sodipodi-0.dtd"
   xmlns="http://www.w3.org/2000/svg"
   xmlns:svg="http://www.w3.org/2000/svg"><sodipodi:namedview
     id="namedview7"
     pagecolor="#f0f0f0"
     bordercolor="#212121"
     borderopacity="1"
     inkscape:showpageshadow="0"
     inkscape:pageopacity="0"
     inkscape:pagecheckerboard="1"
     inkscape:deskcolor="#d1d1d1"
     inkscape:document-units="px"
     showgrid="false"
     inkscape:zoom="9.638826"
     inkscape:cx="21.99438"
     inkscape:cy="35.014638"
     inkscape:window-width="1920"
     inkscape:window-height="1009"
     inkscape:window-x="623"
     inkscape:window-y="1080"
     inkscape:window-maximized="1"
     inkscape:current-layer="svg5" /><defs
     id="defs2"><inkscape:path-effect
       effect="fillet_chamfer"
       id="path-effect1968"
       is_visible="true"
       lpeversion="1"
       nodesatellites_param="F,0,0,1,0,0.5,0,1 @ F,0,0,1,0,0.5,0,1 @ F,0,0,1,0,0.5,0,1 @ F,0,0,1,0,0.5,0,1"
       unit="px"
       method="auto"
       mode="F"
       radius="0.5"
       chamfer_steps="1"
       flexible="false"
       use_knot_distance="true"
       apply_no_radius="true"
       apply_with_radius="true"
       only_selected="false"
       hide_knots="false" /><clipPath
       clipPathUnits="userSpaceOnUse"
       id="clipPath1906"><g
         inkscape:label="Clip"
         id="use1908"><rect
           style="fill:none;fill-opacity:1;stroke:#ff0000;stroke-width:0.529167;stroke-linecap:square;stroke-linejoin:round;stroke-dasharray:none;stroke-opacity:1;paint-order:stroke fill markers"
           id="rect1910"
           width="6.3025494"
           height="6.1037674"
           x="0.83020592"
           y="1.5434815" /></g></clipPath><clipPath
       clipPathUnits="userSpaceOnUse"
       id="clipEmfPath1"><path
         d="M 0.67779528,0.67779528 H 61.67937 V 61.67937 H 0.67779528 Z"
         id="path1" /></clipPath><pattern
       id="EMFhbasepattern"
       patternUnits="userSpaceOnUse"
       width="6"
       height="6"
       x="0"
       y="0" /><clipPath
       clipPathUnits="userSpaceOnUse"
       id="clipEmfPath1-0"><path
         d="M 0.67779528,0.67779528 L 61.67937,0.67779528 L 61.67937,61.67937 L 0.67779528,61.67937 z"
         id="path1-9" /></clipPath><pattern
       id="EMFhbasepattern-4"
       patternUnits="userSpaceOnUse"
       width="6"
       height="6"
       x="0"
       y="0" /><clipPath
       clipPathUnits="userSpaceOnUse"
       id="clipEmfPath1-09"><path
         d="M 0.67779528,0.67779528 L 61.67937,0.67779528 L 61.67937,61.67937 L 0.67779528,61.67937 z"
         id="path1-4" /></clipPath><pattern
       id="EMFhbasepattern-8"
       patternUnits="userSpaceOnUse"
       width="6"
       height="6"
       x="0"
       y="0" /><clipPath
       clipPathUnits="userSpaceOnUse"
       id="clipEmfPath1-094"><path
         d="M 0.67779528,0.67779528 L 61.67937,0.67779528 L 61.67937,61.67937 L 0.67779528,61.67937 z"
         id="path1-8" /></clipPath><pattern
       id="EMFhbasepattern-82"
       patternUnits="userSpaceOnUse"
       width="6"
       height="6"
       x="0"
       y="0" /></defs><path
     style="fill:none;stroke:#0000ff;stroke-width:2.71118px;stroke-linecap:round;stroke-linejoin:round;stroke-miterlimit:4;stroke-dasharray:none;stroke-opacity:1"
     clip-path="url(#clipEmfPath1-094)"
     d="m 59.095276,30.924409 c 0,-15.589291 -12.623937,-28.2132279 -28.170867,-28.2132279 -15.589291,0 -28.2132279,12.6239369 -28.2132279,28.2132279 0,15.54693 12.6239369,28.170867 28.2132279,28.170867 15.54693,0 28.170867,-12.623937 28.170867,-28.170867"
     id="path2"
     transform="matrix(0.26863387,0,0,0.26863409,0.16500895,0.16500866)" /><path
     style="fill:#0000ff;fill-opacity:1;fill-rule:evenodd;stroke:none;stroke-width:0.252522"
     d="m 4.713432,12.602533 c -0.08545,0.075 -0.1922625,0.107136 -0.2990749,0.05357 -0.1068125,-0.04285 -0.1602186,-0.139276 -0.1602186,-0.246412 0,-0.107137 0.074768,-0.214272 0.1602186,-0.246413 0.1068124,-0.05357 0.2136248,-0.03215 0.2990749,0.05357 0.1068124,0.09642 0.1068124,0.278553 0,0.38569 z M 13.119572,4.760171 12.15826,5.7243955 11.38921,5.520837 11.207629,4.7708845 12.168941,3.80666 C 11.592153,3.5923879 10.951279,3.7209508 10.502666,4.1280682 10.054054,4.5458988 9.8724724,5.1672881 10.02201,5.7565364 L 3.9550635,11.820439 c -0.2136248,0.203559 -0.2990746,0.514254 -0.224306,0.803521 0.064087,0.278554 0.2990749,0.514253 0.5767871,0.578534 0.2883938,0.075 0.5874684,-0.01071 0.8010933,-0.224985 L 11.175585,6.9136059 c 0.59815,0.1499905 1.217662,-0.021427 1.63423,-0.4821122 0.405888,-0.4499716 0.534063,-1.1035016 0.309757,-1.6713227 z"
     id="path3" /><path
     style="fill:#0000ff;fill-opacity:1;fill-rule:evenodd;stroke:none;stroke-width:0.264583"
     d="m 13.269473,11.991724 -3.228,-3.2055841 -1.3001665,1.2889591 3.2392085,3.228 0.01121,-0.01121 c 0.358667,0.257792 0.863042,0.212958 1.176875,-0.100875 0.313834,-0.325042 0.347459,-0.818208 0.100875,-1.199292 z"
     id="path5" /><path
     style="fill:none;stroke:#0000ff;stroke-width:0.358667px;stroke-linecap:round;stroke-linejoin:round;stroke-miterlimit:4;stroke-dasharray:none;stroke-opacity:1"
     d="m 13.269473,11.991724 -3.228,-3.2055841 -1.3001665,1.2889591 3.2392085,3.228 0.01121,-0.01121 c 0.358667,0.257792 0.863042,0.212958 1.176875,-0.100875 0.313834,-0.325042 0.347459,-0.818208 0.100875,-1.199292 z"
     id="path6" /><path
     style="fill:#0000ff;fill-opacity:1;fill-rule:evenodd;stroke:none;stroke-width:0.264583"
     d="M 5.2555152,4.9640984 5.2667235,4.9528901 4.9416818,4.3588484 3.8768903,3.495807 3.4397653,3.932932 4.2915985,4.9977235 4.8968484,5.3227651 4.9080564,5.3115571 7.2954314,7.6877235 7.6428896,7.3402653 Z"
     id="path7" /><path
     style="fill:none;stroke:#0000ff;stroke-width:0.358667px;stroke-linecap:round;stroke-linejoin:round;stroke-miterlimit:4;stroke-dasharray:none;stroke-opacity:1"
     d="M 5.2555152,4.9640984 5.2667235,4.9528901 4.9416818,4.3588484 3.8768903,3.495807 3.4397653,3.932932 4.2915985,4.9977235 4.8968484,5.3227651 4.9080564,5.3115571 7.2954314,7.6877235 7.6428896,7.3402653 Z"
     id="path8" /></svg>
