<?xml version="1.0" encoding="UTF-8" standalone="no"?>
<!-- Created with Inkscape (http://www.inkscape.org/) -->

<svg
   width="64"
   height="64"
   viewBox="0 0 16.933333 16.933332"
   version="1.1"
   id="svg5"
   xml:space="preserve"
   inkscape:version="1.4.2 (f4327f4, 2025-05-13)"
   sodipodi:docname="om-4-manualMode-64x64-blue.svg"
   inkscape:export-filename="..\png\rfid-36x30-nb-595257.png"
   inkscape:export-xdpi="96"
   inkscape:export-ydpi="96"
   xmlns:inkscape="http://www.inkscape.org/namespaces/inkscape"
   xmlns:sodipodi="http://sodipodi.sourceforge.net/DTD/sodipodi-0.dtd"
   xmlns="http://www.w3.org/2000/svg"
   xmlns:svg="http://www.w3.org/2000/svg"><sodipodi:namedview
     id="namedview7"
     pagecolor="#f0f0f0"
     bordercolor="#212121"
     borderopacity="1"
     inkscape:showpageshadow="0"
     inkscape:pageopacity="0"
     inkscape:pagecheckerboard="1"
     inkscape:deskcolor="#d1d1d1"
     inkscape:document-units="px"
     showgrid="false"
     inkscape:zoom="9.638826"
     inkscape:cx="22.098127"
     inkscape:cy="35.014638"
     inkscape:window-width="1920"
     inkscape:window-height="1009"
     inkscape:window-x="623"
     inkscape:window-y="1080"
     inkscape:window-maximized="1"
     inkscape:current-layer="svg5" /><defs
     id="defs2"><inkscape:path-effect
       effect="fillet_chamfer"
       id="path-effect1968"
       is_visible="true"
       lpeversion="1"
       nodesatellites_param="F,0,0,1,0,0.5,0,1 @ F,0,0,1,0,0.5,0,1 @ F,0,0,1,0,0.5,0,1 @ F,0,0,1,0,0.5,0,1"
       unit="px"
       method="auto"
       mode="F"
       radius="0.5"
       chamfer_steps="1"
       flexible="false"
       use_knot_distance="true"
       apply_no_radius="true"
       apply_with_radius="true"
       only_selected="false"
       hide_knots="false" /><clipPath
       clipPathUnits="userSpaceOnUse"
       id="clipPath1906"><g
         inkscape:label="Clip"
         id="use1908"><rect
           style="fill:none;fill-opacity:1;stroke:#ff0000;stroke-width:0.529167;stroke-linecap:square;stroke-linejoin:round;stroke-dasharray:none;stroke-opacity:1;paint-order:stroke fill markers"
           id="rect1910"
           width="6.3025494"
           height="6.1037674"
           x="0.83020592"
           y="1.5434815" /></g></clipPath><clipPath
       clipPathUnits="userSpaceOnUse"
       id="clipEmfPath1"><path
         d="M 0.67779528,0.67779528 H 61.67937 V 61.67937 H 0.67779528 Z"
         id="path1" /></clipPath><pattern
       id="EMFhbasepattern"
       patternUnits="userSpaceOnUse"
       width="6"
       height="6"
       x="0"
       y="0" /><clipPath
       clipPathUnits="userSpaceOnUse"
       id="clipEmfPath1-0"><path
         d="M 0.67779528,0.67779528 L 61.67937,0.67779528 L 61.67937,61.67937 L 0.67779528,61.67937 z"
         id="path1-9" /></clipPath><pattern
       id="EMFhbasepattern-4"
       patternUnits="userSpaceOnUse"
       width="6"
       height="6"
       x="0"
       y="0" /><clipPath
       clipPathUnits="userSpaceOnUse"
       id="clipEmfPath1-09"><path
         d="M 0.67779528,0.67779528 L 61.67937,0.67779528 L 61.67937,61.67937 L 0.67779528,61.67937 z"
         id="path1-4" /></clipPath><pattern
       id="EMFhbasepattern-8"
       patternUnits="userSpaceOnUse"
       width="6"
       height="6"
       x="0"
       y="0" /><clipPath
       clipPathUnits="userSpaceOnUse"
       id="clipEmfPath1-094"><path
         d="M 0.67779528,0.67779528 L 61.67937,0.67779528 L 61.67937,61.67937 L 0.67779528,61.67937 z"
         id="path1-8" /></clipPath><pattern
       id="EMFhbasepattern-82"
       patternUnits="userSpaceOnUse"
       width="6"
       height="6"
       x="0"
       y="0" /><clipPath
       clipPathUnits="userSpaceOnUse"
       id="clipEmfPath1-9"><path
         d="M 0.67779528,0.67779528 L 61.67937,0.67779528 L 61.67937,61.67937 L 0.67779528,61.67937 z"
         id="path1-48" /></clipPath><pattern
       id="EMFhbasepattern-824"
       patternUnits="userSpaceOnUse"
       width="6"
       height="6"
       x="0"
       y="0" /></defs><path
     style="fill:none;stroke:#0000ff;stroke-width:2.71118px;stroke-linecap:round;stroke-linejoin:round;stroke-miterlimit:4;stroke-dasharray:none;stroke-opacity:1"
     clip-path="url(#clipEmfPath1-9)"
     d="m 59.095276,30.924409 c 0,-15.589291 -12.623937,-28.2132279 -28.170867,-28.2132279 -15.589291,0 -28.2132279,12.6239369 -28.2132279,28.2132279 0,15.54693 12.6239369,28.170867 28.2132279,28.170867 15.54693,0 28.170867,-12.623937 28.170867,-28.170867"
     id="path2"
     transform="matrix(0.26863387,0,0,0.26863409,0.16503055,0.16498722)" /><path
     style="fill:#0000ff;fill-opacity:1;fill-rule:evenodd;stroke:none;stroke-width:0.26209"
     d="M 6.4793583,3.1076998 V 10.282791 L 5.8947822,7.6005141 C 5.8175742,7.2093487 5.4315335,6.9634735 5.0454928,7.0528825 4.6704817,7.1311163 4.4278274,7.5222812 4.5160654,7.9134465 l 0.8492897,3.9116545 c 0.033089,0.145289 0.121327,0.290579 0.2647134,0.413517 l 1.5551928,1.229377 v 1.084087 h 4.1140927 v -0.72645 c 0,-1.028206 1.136062,-1.095263 1.136062,-3.039914 V 8.1816743 c 0,-0.4805747 -0.386041,-0.8717401 -0.860319,-0.8717401 -0.220595,0 -0.41913,0.08941 -0.562517,0.2346992 v -0.08941 c 0,-0.4805747 -0.386041,-0.8717401 -0.84929,-0.8717401 -0.2316244,0 -0.4411895,0.089409 -0.5956056,0.2458753 -0.088238,-0.3911649 -0.41913,-0.6817449 -0.8162006,-0.6817449 -0.4742784,0 -0.8492895,0.3911655 -0.8492895,0.8717402 V 3.1076998 c 0,-0.4023415 -0.3198623,-0.7264499 -0.716933,-0.7264499 -0.3970704,0 -0.705903,0.3241084 -0.705903,0.7264499 z"
     id="path3" /></svg>
