<?xml version="1.0" encoding="UTF-8" standalone="no"?>
<!-- Created with Inkscape (http://www.inkscape.org/) -->

<svg
   width="64"
   height="64"
   viewBox="0 0 16.933333 16.933332"
   version="1.1"
   id="svg5"
   xml:space="preserve"
   inkscape:version="1.4 (86a8ad7, 2024-10-11)"
   sodipodi:docname="om-6-autoMode-64x64.svg"
   inkscape:export-filename="..\png\rfid-36x30-nb-595257.png"
   inkscape:export-xdpi="96"
   inkscape:export-ydpi="96"
   xmlns:inkscape="http://www.inkscape.org/namespaces/inkscape"
   xmlns:sodipodi="http://sodipodi.sourceforge.net/DTD/sodipodi-0.dtd"
   xmlns="http://www.w3.org/2000/svg"
   xmlns:svg="http://www.w3.org/2000/svg"><sodipodi:namedview
     id="namedview7"
     pagecolor="#f0f0f0"
     bordercolor="#212121"
     borderopacity="1"
     inkscape:showpageshadow="0"
     inkscape:pageopacity="0"
     inkscape:pagecheckerboard="1"
     inkscape:deskcolor="#d1d1d1"
     inkscape:document-units="px"
     showgrid="false"
     inkscape:zoom="13.631358"
     inkscape:cx="18.413426"
     inkscape:cy="33.48896"
     inkscape:window-width="1920"
     inkscape:window-height="1009"
     inkscape:window-x="1912"
     inkscape:window-y="-8"
     inkscape:window-maximized="1"
     inkscape:current-layer="svg5" /><defs
     id="defs2"><inkscape:path-effect
       effect="fillet_chamfer"
       id="path-effect1968"
       is_visible="true"
       lpeversion="1"
       nodesatellites_param="F,0,0,1,0,0.5,0,1 @ F,0,0,1,0,0.5,0,1 @ F,0,0,1,0,0.5,0,1 @ F,0,0,1,0,0.5,0,1"
       unit="px"
       method="auto"
       mode="F"
       radius="0.5"
       chamfer_steps="1"
       flexible="false"
       use_knot_distance="true"
       apply_no_radius="true"
       apply_with_radius="true"
       only_selected="false"
       hide_knots="false" /><clipPath
       clipPathUnits="userSpaceOnUse"
       id="clipPath1906"><g
         inkscape:label="Clip"
         id="use1908"><rect
           style="fill:none;fill-opacity:1;stroke:#ff0000;stroke-width:0.529167;stroke-linecap:square;stroke-linejoin:round;stroke-dasharray:none;stroke-opacity:1;paint-order:stroke fill markers"
           id="rect1910"
           width="6.3025494"
           height="6.1037674"
           x="0.83020592"
           y="1.5434815" /></g></clipPath><clipPath
       clipPathUnits="userSpaceOnUse"
       id="clipEmfPath1"><path
         d="M 0.67779528,0.67779528 H 61.67937 V 61.67937 H 0.67779528 Z"
         id="path1" /></clipPath><pattern
       id="EMFhbasepattern"
       patternUnits="userSpaceOnUse"
       width="6"
       height="6"
       x="0"
       y="0" /><clipPath
       clipPathUnits="userSpaceOnUse"
       id="clipEmfPath1-0"><path
         d="M 0.67779528,0.67779528 L 61.67937,0.67779528 L 61.67937,61.67937 L 0.67779528,61.67937 z"
         id="path1-9" /></clipPath><pattern
       id="EMFhbasepattern-4"
       patternUnits="userSpaceOnUse"
       width="6"
       height="6"
       x="0"
       y="0" /><clipPath
       clipPathUnits="userSpaceOnUse"
       id="clipEmfPath1-09"><path
         d="M 0.67779528,0.67779528 L 61.67937,0.67779528 L 61.67937,61.67937 L 0.67779528,61.67937 z"
         id="path1-4" /></clipPath><pattern
       id="EMFhbasepattern-8"
       patternUnits="userSpaceOnUse"
       width="6"
       height="6"
       x="0"
       y="0" /><clipPath
       clipPathUnits="userSpaceOnUse"
       id="clipEmfPath1-094"><path
         d="M 0.67779528,0.67779528 L 61.67937,0.67779528 L 61.67937,61.67937 L 0.67779528,61.67937 z"
         id="path1-8" /></clipPath><pattern
       id="EMFhbasepattern-82"
       patternUnits="userSpaceOnUse"
       width="6"
       height="6"
       x="0"
       y="0" /><clipPath
       clipPathUnits="userSpaceOnUse"
       id="clipEmfPath1-9"><path
         d="M 0.67779528,0.67779528 L 61.67937,0.67779528 L 61.67937,61.67937 L 0.67779528,61.67937 z"
         id="path1-48" /></clipPath><pattern
       id="EMFhbasepattern-824"
       patternUnits="userSpaceOnUse"
       width="6"
       height="6"
       x="0"
       y="0" /><clipPath
       clipPathUnits="userSpaceOnUse"
       id="clipEmfPath1-0948"><path
         d="M 0.67779528,0.67779528 L 61.67937,0.67779528 L 61.67937,61.67937 L 0.67779528,61.67937 z"
         id="path1-82" /></clipPath><pattern
       id="EMFhbasepattern-45"
       patternUnits="userSpaceOnUse"
       width="6"
       height="6"
       x="0"
       y="0" /><pattern
       id="EMFhbasepattern-0"
       patternUnits="userSpaceOnUse"
       width="6"
       height="6"
       x="0"
       y="0" /></defs><path
     style="fill:none;stroke:#ffffff;stroke-width:2.71118px;stroke-linecap:round;stroke-linejoin:round;stroke-miterlimit:4;stroke-dasharray:none;stroke-opacity:1"
     clip-path="url(#clipEmfPath1-0948)"
     d="m 59.095276,30.924409 c 0,-15.589291 -12.623937,-28.2132279 -28.170867,-28.2132279 -15.589291,0 -28.2132279,12.6239369 -28.2132279,28.2132279 0,15.54693 12.6239369,28.170867 28.2132279,28.170867 15.54693,0 28.170867,-12.623937 28.170867,-28.170867"
     id="path2"
     transform="matrix(0.26863388,0,0,0.26863404,0.16494574,0.16507196)" /><path
     style="fill:#ffffff;fill-opacity:1;fill-rule:evenodd;stroke:none;stroke-width:0.260918"
     d="M 9.0469561,14.816666 H 7.8974344 C 7.7758505,14.750347 7.709532,14.639817 7.6874257,14.485073 7.6100541,14.009791 7.5326823,13.545561 7.4553108,13.070278 7.4442577,12.9708 7.4110984,12.915535 7.3116204,12.893429 6.9026562,12.793951 6.5157976,12.628155 6.1620988,12.418146 c -0.077371,-0.04421 -0.1326372,-0.04421 -0.1989558,0 C 5.5652318,12.716579 5.1562672,13.00396 4.758356,13.291339 4.5594002,13.423976 4.4378162,13.423976 4.2720198,13.258185 4.0841172,13.070283 3.8962147,12.871327 3.708312,12.683425 3.5204095,12.495522 3.5093563,12.384991 3.6641,12.174983 3.9514804,11.777072 4.2278078,11.37916 4.5262412,10.981249 4.5704532,10.91493 4.5815072,10.870718 4.5372942,10.793346 4.3051791,10.428589 4.1504358,10.030679 4.0399049,9.6106616 4.0177986,9.5332893 3.9846394,9.5111838 3.9183209,9.4890773 3.4430378,9.4227588 2.9788079,9.3343347 2.5035248,9.2680152 2.3377284,9.2459096 2.2050913,9.1906439 2.1166666,9.046954 V 7.8974325 C 2.1940379,7.7647956 2.3156223,7.7095301 2.4703655,7.6874238 2.9345955,7.6100525 3.4098785,7.5326805 3.8741084,7.455309 3.9846394,7.4442563 4.0288518,7.4000432 4.0509579,7.3005657 4.1504358,6.8916012 4.3162322,6.5157962 4.5262409,6.1620975 c 0.044212,-0.077371 0.044212,-0.121584 0,-0.1989558 C 4.2278075,5.5652307 3.940427,5.1562662 3.6419935,4.7473021 3.5204095,4.5704525 3.5314626,4.4378155 3.6751528,4.2830722 3.8741084,4.0841165 4.0730641,3.885161 4.2720198,3.6862054 4.4378162,3.520409 4.5594002,3.520409 4.758356,3.6530461 c 0.4089645,0.2873803 0.8068758,0.5858137 1.2158401,0.873194 0.055266,0.044212 0.099478,0.055266 0.1657967,0.011053 C 6.5047446,4.3162314 6.9137092,4.1504351 7.3337268,4.0399042 7.4110984,4.0288512 7.4332044,3.9846387 7.4442577,3.9183203 7.5216293,3.4430373 7.6100541,2.9788075 7.6763726,2.5035247 7.6984787,2.3487815 7.7537441,2.2050913 7.8974344,2.1166666 h 1.1495217 c 0.1215842,0.077371 0.1879028,0.1879025 0.2100088,0.3426458 0.077371,0.4752828 0.1547433,0.9395126 0.2321152,1.4147955 0.011053,0.099478 0.055266,0.1547433 0.1547426,0.1768494 0.4089653,0.099478 0.7958233,0.2652741 1.1495223,0.486336 0.06632,0.033159 0.110531,0.033159 0.176849,-0.011053 0.397912,-0.2984333 0.806877,-0.5858137 1.215841,-0.873194 0.198956,-0.1436902 0.32054,-0.1326371 0.486336,0.033159 0.187902,0.1879025 0.375805,0.3868581 0.563708,0.5747606 0.187902,0.1879025 0.198956,0.2984334 0.04421,0.5084421 -0.28738,0.3979114 -0.57476,0.8068755 -0.862141,1.2047867 -0.04421,0.055266 -0.05526,0.099478 -0.01105,0.1657966 0.221062,0.3647517 0.386859,0.7737162 0.497389,1.1937337 0.01105,0.077371 0.05526,0.099477 0.121584,0.1105309 0.475284,0.077371 0.939513,0.1657963 1.414796,0.2321148 0.154744,0.022107 0.298434,0.077371 0.375805,0.2210617 v 1.1163619 c -0.05526,0.1436898 -0.154743,0.2210621 -0.309486,0.2431676 -0.486337,0.066319 -0.972672,0.1547436 -1.459009,0.2321159 -0.07737,0.011055 -0.121584,0.033154 -0.14369,0.1326371 -0.11053,0.4200161 -0.276327,0.8068741 -0.497389,1.1826791 -0.04421,0.06632 -0.03316,0.09948 0.01105,0.165796 0.298434,0.408965 0.585814,0.817929 0.884248,1.237947 0.121583,0.165796 0.11053,0.298434 -0.03316,0.453175 -0.198956,0.198956 -0.397912,0.397912 -0.596867,0.596867 -0.165797,0.165796 -0.287381,0.17685 -0.486337,0.03315 -0.397911,-0.287379 -0.806875,-0.57476 -1.215841,-0.873193 -0.05526,-0.04421 -0.09948,-0.05526 -0.176849,-0.01105 -0.364752,0.221062 -0.762663,0.386858 -1.1826809,0.497389 -0.077371,0.01105 -0.099478,0.05526 -0.1105309,0.121583 -0.077372,0.475284 -0.1657964,0.950566 -0.2321151,1.425849 -0.022107,0.154743 -0.077371,0.287381 -0.2210619,0.364752 z M 11.887601,8.4721933 c 0,-1.8900784 -1.525327,-3.4154049 -3.4154056,-3.4154049 -1.890079,0 -3.4154061,1.5253265 -3.4154061,3.4154049 0,1.8900777 1.5253271,3.4154037 3.4154061,3.4154037 1.8900786,0 3.4154056,-1.525326 3.4154056,-3.4154037 z"
     id="path1-94" /><path
     style="fill:#ffffff;fill-opacity:1;fill-rule:evenodd;stroke:none;stroke-width:0.219221"
     d="M 6.8791663,6.0854164 11.1125,8.4666664 6.8791663,10.847916 Z"
     id="path2-8" /></svg>
