<?xml version="1.0" encoding="UTF-8" standalone="no"?>
<!-- Created with Inkscape (http://www.inkscape.org/) -->

<svg
   width="64"
   height="64"
   viewBox="0 0 16.933333 16.933332"
   version="1.1"
   id="svg5"
   xml:space="preserve"
   inkscape:version="1.4.2 (f4327f4, 2025-05-13)"
   sodipodi:docname="om-0-control-off-64x64-black.svg"
   inkscape:export-filename="om-0-control.off.png"
   inkscape:export-xdpi="96"
   inkscape:export-ydpi="96"
   xmlns:inkscape="http://www.inkscape.org/namespaces/inkscape"
   xmlns:sodipodi="http://sodipodi.sourceforge.net/DTD/sodipodi-0.dtd"
   xmlns="http://www.w3.org/2000/svg"
   xmlns:svg="http://www.w3.org/2000/svg"><sodipodi:namedview
     id="namedview7"
     pagecolor="#f0f0f0"
     bordercolor="#212121"
     borderopacity="1"
     inkscape:showpageshadow="0"
     inkscape:pageopacity="0"
     inkscape:pagecheckerboard="1"
     inkscape:deskcolor="#d1d1d1"
     inkscape:document-units="px"
     showgrid="false"
     inkscape:zoom="6.8156792"
     inkscape:cx="-11.590921"
     inkscape:cy="15.772456"
     inkscape:window-width="1920"
     inkscape:window-height="1009"
     inkscape:window-x="-8"
     inkscape:window-y="-8"
     inkscape:window-maximized="1"
     inkscape:current-layer="svg5" /><defs
     id="defs2"><inkscape:path-effect
       effect="fillet_chamfer"
       id="path-effect1968"
       is_visible="true"
       lpeversion="1"
       nodesatellites_param="F,0,0,1,0,0.5,0,1 @ F,0,0,1,0,0.5,0,1 @ F,0,0,1,0,0.5,0,1 @ F,0,0,1,0,0.5,0,1"
       unit="px"
       method="auto"
       mode="F"
       radius="0.5"
       chamfer_steps="1"
       flexible="false"
       use_knot_distance="true"
       apply_no_radius="true"
       apply_with_radius="true"
       only_selected="false"
       hide_knots="false" /><clipPath
       clipPathUnits="userSpaceOnUse"
       id="clipPath1906"><g
         inkscape:label="Clip"
         id="use1908"><rect
           style="fill:none;fill-opacity:1;stroke:#ff0000;stroke-width:0.529167;stroke-linecap:square;stroke-linejoin:round;stroke-dasharray:none;stroke-opacity:1;paint-order:stroke fill markers"
           id="rect1910"
           width="6.3025494"
           height="6.1037674"
           x="0.83020592"
           y="1.5434815" /></g></clipPath><clipPath
       clipPathUnits="userSpaceOnUse"
       id="clipEmfPath1"><path
         d="M 0.67779528,0.67779528 H 61.67937 V 61.67937 H 0.67779528 Z"
         id="path1" /></clipPath><pattern
       id="EMFhbasepattern"
       patternUnits="userSpaceOnUse"
       width="6"
       height="6"
       x="0"
       y="0" /></defs><path
     style="fill:none;stroke:#010028;stroke-width:2.71118px;stroke-linecap:round;stroke-linejoin:round;stroke-miterlimit:4;stroke-dasharray:none;stroke-opacity:1"
     clip-path="url(#clipEmfPath1)"
     d="m 59.095276,30.924409 c 0,-15.589291 -12.623937,-28.2132279 -28.170867,-28.2132279 -15.589291,0 -28.2132279,12.6239369 -28.2132279,28.2132279 0,15.54693 12.6239369,28.170867 28.2132279,28.170867 15.54693,0 28.170867,-12.623937 28.170867,-28.170867"
     id="path2"
     transform="matrix(0.26863387,0,0,0.26863404,0.1650316,0.1649862)" /><path
     style="fill:#010028;fill-opacity:1;fill-rule:evenodd;stroke:none;stroke-width:0.26499999;stroke-dasharray:none"
     d="m 11.972876,10.033833 h -1.681251 v 1.658834 H 9.4509998 l 1.6812502,1.983876 1.68125,-1.983876 h -0.840624 z"
     id="path3" /><path
     style="fill:#010028;fill-opacity:1;fill-rule:evenodd;stroke:none;stroke-width:0.264583"
     d="m 12.376375,7.287791 c 0,-0.168125 -0.1345,-0.3026251 -0.302625,-0.3026251 -0.168125,0 -0.302625,0.1345001 -0.302625,0.3026251 0,0.168125 0.1345,0.3026251 0.302625,0.3026251 0.168125,0 0.302625,-0.1345001 0.302625,-0.3026251 z"
     id="path4" /><path
     style="fill:#010028;fill-opacity:1;fill-rule:evenodd;stroke:none;stroke-width:0.264583"
     d="m 12.376375,4.9116246 c 0,-0.168125 -0.1345,-0.3026251 -0.302625,-0.3026251 -0.168125,0 -0.302625,0.1345001 -0.302625,0.3026251 0,0.1681249 0.1345,0.3026248 0.302625,0.3026248 0.168125,0 0.302625,-0.1344999 0.302625,-0.3026248 z"
     id="path5" /><path
     style="fill:#010028;fill-opacity:1;fill-rule:evenodd;stroke:none;stroke-width:0.264583"
     d="m 2.3112914,10.941709 1.1544582,-0.773376 1.4234583,-3.7323754 2.6451667,-1.0199581 2.7796664,-0.33625 0.20175,0.2017499 V 5.5617076 L 8.0723743,6.2342078 7.0524162,6.7722078 6.7161663,7.119666 6.5144162,7.5904161 v 1.4907082 l 0.1793332,0.1793333 h 0.773375 l 0.538,-0.1793333 1.490708,-0.9527084 h 0.224167 l 0.269,0.269 v 0.269 l -1.5467502,1.5467501 -0.8406247,1.031168 -0.2802083,0.280208 -0.4707501,0.269 -0.47075,0.20175 H 5.9091662 l -0.5492083,0.134501 -0.807,0.269 L 3.8019995,12.813501 3.1631247,12.55571 2.501833,11.715084 Z"
     id="path6" /><path
     style="fill:#010028;fill-opacity:1;fill-rule:evenodd;stroke:none;stroke-width:0.264583"
     d="m 11.984084,3.7235412 v 5.0885831 h 1.524333 V 3.7235412 Z"
     id="path7" /><path
     style="fill:#010028;fill-opacity:1;fill-rule:evenodd;stroke:none;stroke-width:0.264583"
     d="m 12.959209,6.0997077 c 0,-0.4707499 -0.381084,-0.8518332 -0.851834,-0.8518332 -0.47075,0 -0.851833,0.3810833 -0.851833,0.8518332 0,0.47075 0.381083,0.8406251 0.851833,0.8406251 0.47075,0 0.851834,-0.3698751 0.851834,-0.8406251 z"
     id="path8" /><path
     style="fill:#010028;fill-opacity:1;fill-rule:evenodd;stroke:none;stroke-width:0.264583"
     d="m 9.3613328,7.455916 2.7012092,-1.14325 -0.269,-0.6388748 -2.7012092,1.1432497 z"
     id="path9" /><path
     style="fill:#010028;fill-opacity:1;fill-rule:evenodd;stroke:none;stroke-width:0.264583"
     d="M 9.3052908,7.455916 12.141001,6.6937493 12.051331,6.3574994 9.2156218,7.119666 Z"
     id="path10" /></svg>
