<?xml version="1.0" encoding="UTF-8" standalone="no"?>
<!-- Created with Inkscape (http://www.inkscape.org/) -->

<svg
   width="64"
   height="64"
   viewBox="0 0 16.933333 16.933332"
   version="1.1"
   id="svg5"
   xml:space="preserve"
   inkscape:version="1.4 (86a8ad7, 2024-10-11)"
   sodipodi:docname="om-7-emrgStopUnack-64x64.svg"
   inkscape:export-filename="..\png\rfid-36x30-nb-595257.png"
   inkscape:export-xdpi="96"
   inkscape:export-ydpi="96"
   xmlns:inkscape="http://www.inkscape.org/namespaces/inkscape"
   xmlns:sodipodi="http://sodipodi.sourceforge.net/DTD/sodipodi-0.dtd"
   xmlns="http://www.w3.org/2000/svg"
   xmlns:svg="http://www.w3.org/2000/svg"><sodipodi:namedview
     id="namedview7"
     pagecolor="#f0f0f0"
     bordercolor="#212121"
     borderopacity="1"
     inkscape:showpageshadow="0"
     inkscape:pageopacity="0"
     inkscape:pagecheckerboard="1"
     inkscape:deskcolor="#d1d1d1"
     inkscape:document-units="px"
     showgrid="false"
     inkscape:zoom="11.313709"
     inkscape:cx="22.45064"
     inkscape:cy="32.747883"
     inkscape:window-width="1920"
     inkscape:window-height="1009"
     inkscape:window-x="623"
     inkscape:window-y="1080"
     inkscape:window-maximized="1"
     inkscape:current-layer="svg5" /><defs
     id="defs2"><inkscape:path-effect
       effect="fillet_chamfer"
       id="path-effect1968"
       is_visible="true"
       lpeversion="1"
       nodesatellites_param="F,0,0,1,0,0.5,0,1 @ F,0,0,1,0,0.5,0,1 @ F,0,0,1,0,0.5,0,1 @ F,0,0,1,0,0.5,0,1"
       unit="px"
       method="auto"
       mode="F"
       radius="0.5"
       chamfer_steps="1"
       flexible="false"
       use_knot_distance="true"
       apply_no_radius="true"
       apply_with_radius="true"
       only_selected="false"
       hide_knots="false" /><clipPath
       clipPathUnits="userSpaceOnUse"
       id="clipPath1906"><g
         inkscape:label="Clip"
         id="use1908"><rect
           style="fill:none;fill-opacity:1;stroke:#ff0000;stroke-width:0.529167;stroke-linecap:square;stroke-linejoin:round;stroke-dasharray:none;stroke-opacity:1;paint-order:stroke fill markers"
           id="rect1910"
           width="6.3025494"
           height="6.1037674"
           x="0.83020592"
           y="1.5434815" /></g></clipPath><clipPath
       clipPathUnits="userSpaceOnUse"
       id="clipEmfPath1"><path
         d="M 0.67779528,0.67779528 H 61.67937 V 61.67937 H 0.67779528 Z"
         id="path1" /></clipPath><pattern
       id="EMFhbasepattern"
       patternUnits="userSpaceOnUse"
       width="6"
       height="6"
       x="0"
       y="0" /><clipPath
       clipPathUnits="userSpaceOnUse"
       id="clipEmfPath1-0"><path
         d="M 0.67779528,0.67779528 L 61.67937,0.67779528 L 61.67937,61.67937 L 0.67779528,61.67937 z"
         id="path1-9" /></clipPath><pattern
       id="EMFhbasepattern-4"
       patternUnits="userSpaceOnUse"
       width="6"
       height="6"
       x="0"
       y="0" /><clipPath
       clipPathUnits="userSpaceOnUse"
       id="clipEmfPath1-09"><path
         d="M 0.67779528,0.67779528 L 61.67937,0.67779528 L 61.67937,61.67937 L 0.67779528,61.67937 z"
         id="path1-4" /></clipPath><pattern
       id="EMFhbasepattern-8"
       patternUnits="userSpaceOnUse"
       width="6"
       height="6"
       x="0"
       y="0" /><clipPath
       clipPathUnits="userSpaceOnUse"
       id="clipEmfPath1-094"><path
         d="M 0.67779528,0.67779528 L 61.67937,0.67779528 L 61.67937,61.67937 L 0.67779528,61.67937 z"
         id="path1-8" /></clipPath><pattern
       id="EMFhbasepattern-82"
       patternUnits="userSpaceOnUse"
       width="6"
       height="6"
       x="0"
       y="0" /><clipPath
       clipPathUnits="userSpaceOnUse"
       id="clipEmfPath1-9"><path
         d="M 0.67779528,0.67779528 L 61.67937,0.67779528 L 61.67937,61.67937 L 0.67779528,61.67937 z"
         id="path1-48" /></clipPath><pattern
       id="EMFhbasepattern-824"
       patternUnits="userSpaceOnUse"
       width="6"
       height="6"
       x="0"
       y="0" /><clipPath
       clipPathUnits="userSpaceOnUse"
       id="clipEmfPath1-0948"><path
         d="M 0.67779528,0.67779528 L 61.67937,0.67779528 L 61.67937,61.67937 L 0.67779528,61.67937 z"
         id="path1-82" /></clipPath><pattern
       id="EMFhbasepattern-45"
       patternUnits="userSpaceOnUse"
       width="6"
       height="6"
       x="0"
       y="0" /><pattern
       id="EMFhbasepattern-0"
       patternUnits="userSpaceOnUse"
       width="6"
       height="6"
       x="0"
       y="0" /><clipPath
       clipPathUnits="userSpaceOnUse"
       id="clipEmfPath1-09488"><path
         d="M 0.67779528,0.67779528 L 61.67937,0.67779528 L 61.67937,61.67937 L 0.67779528,61.67937 z"
         id="path1-2" /></clipPath><clipPath
       clipPathUnits="userSpaceOnUse"
       id="clipEmfPath2"><path
         d="M 16.944882,21.689449 L 45.412283,21.689449 L 45.412283,50.834646 L 16.944882,50.834646 z"
         id="path2" /></clipPath><clipPath
       clipPathUnits="userSpaceOnUse"
       id="clipEmfPath3"><path
         d="m 17.179687,21.996094 v 0.423828 h 0.41211 v -0.423828 z"
         id="path3" /></clipPath><pattern
       id="EMFhbasepattern-455"
       patternUnits="userSpaceOnUse"
       width="6"
       height="6"
       x="0"
       y="0" /><clipPath
       clipPathUnits="userSpaceOnUse"
       id="clipEmfPath1-1"><path
         d="M 0.67779528,0.67779528 L 61.67937,0.67779528 L 61.67937,61.67937 L 0.67779528,61.67937 z"
         id="path1-7" /></clipPath><clipPath
       clipPathUnits="userSpaceOnUse"
       id="clipEmfPath2-1"><path
         d="M 16.944882,21.689449 L 45.412283,21.689449 L 45.412283,50.834646 L 16.944882,50.834646 z"
         id="path2-1" /></clipPath><clipPath
       clipPathUnits="userSpaceOnUse"
       id="clipEmfPath3-5"><path
         d="m 17.179687,21.996094 v 0.423828 h 0.41211 v -0.423828 z"
         id="path3-2" /></clipPath><pattern
       id="EMFhbasepattern-7"
       patternUnits="userSpaceOnUse"
       width="6"
       height="6"
       x="0"
       y="0" /><clipPath
       clipPathUnits="userSpaceOnUse"
       id="clipEmfPath1-4"><path
         d="M 0,0 L 29.145197,0 L 29.145197,29.145197 L 0,29.145197 z"
         id="path1-23" /></clipPath><clipPath
       clipPathUnits="userSpaceOnUse"
       id="clipEmfPath2-2"><path
         d="M 0.00976563,0.00976563 V 0.43554688 H 0.44140625 V 0.00976563 Z"
         id="path2-2" /></clipPath><pattern
       id="EMFhbasepattern-1"
       patternUnits="userSpaceOnUse"
       width="6"
       height="6"
       x="0"
       y="0" /></defs><path
     style="fill:#ff0000;fill-opacity:1;fill-rule:evenodd;stroke:none;stroke-width:0.272166"
     d="m 16.139582,8.4724312 c 0,-4.242875 -3.435806,-7.67868124 -7.6671518,-7.67868124 -4.2428744,0 -7.67868024,3.43580624 -7.67868024,7.67868124 0,4.2313448 3.43580584,7.6671508 7.67868024,7.6671508 4.2313458,0 7.6671518,-3.435806 7.6671518,-7.6671508 z"
     id="path4" /><path
     style="fill:none;stroke:#ffff00;stroke-width:2.71118px;stroke-linecap:butt;stroke-linejoin:miter;stroke-miterlimit:2;stroke-dasharray:none;stroke-opacity:1"
     clip-path="url(#clipEmfPath1-1)"
     d="m 59.095276,30.924409 c 0,-15.589291 -12.623937,-28.2132279 -28.170867,-28.2132279 -15.589291,0 -28.2132279,12.6239369 -28.2132279,28.2132279 0,15.54693 12.6239369,28.170867 28.2132279,28.170867 15.54693,0 28.170867,-12.623937 28.170867,-28.170867"
     id="path5"
     transform="matrix(0.26863382,0,0,0.26863404,0.16501061,0.16500872)" /><g
     clip-path="url(#clipEmfPath2-1)"
     id="g5"
     transform="matrix(0.26458332,0,0,0.26458332,2.1166666,-2.3812499)" /><rect
     style="fill:#919191;fill-opacity:1;fill-rule:evenodd;stroke:#000000;stroke-width:0.159679;stroke-dasharray:none;stroke-opacity:1"
     id="rect10"
     width="4.205945"
     height="1.5131347"
     x="6.3636937"
     y="7.9097481" /><path
     style="fill:#ffff00;fill-opacity:1;fill-rule:evenodd;stroke:none;stroke-width:0.243796"
     d="M 7.2790859,5.2916664 H 9.654246 V 3.6103425 h 1.19367 L 8.4727554,1.5874999 6.0854164,3.6103425 h 1.1936695 z"
     id="path9" /><rect
     style="fill:#ffff00;fill-opacity:1;fill-rule:evenodd;stroke-width:0.13229166;stroke-dasharray:none;stroke:#000000;stroke-opacity:1"
     id="rect1"
     width="7.9374995"
     height="3.9687498"
     x="4.4979162"
     y="9.260416" /><g
     id="g7"><path
       id="path10"
       style="fill:#ff0000;fill-opacity:1;fill-rule:evenodd;stroke:#000000;stroke-width:0.144906;stroke-dasharray:none;stroke-opacity:1"
       d="M 8.5173649,5.6681213 A 3.8945672,2.587943 0 0 0 4.6253337,8.1650818 h 0.058827 v 0.00505 h 7.6669213 v -0.00505 h 0.05883 A 3.8945672,2.587943 0 0 0 8.5173649,5.6681213 Z" /></g></svg>
