<?xml version="1.0" encoding="UTF-8" standalone="no"?>
<!-- Created with Inkscape (http://www.inkscape.org/) -->

<svg
   width="64"
   height="64"
   viewBox="0 0 16.933333 16.933332"
   version="1.1"
   id="svg5"
   xml:space="preserve"
   inkscape:version="1.4 (86a8ad7, 2024-10-11)"
   sodipodi:docname="ddbb-64x64.svg"
   inkscape:export-filename="..\2. png\ddbb-36x30-l2-p3-3-nb-FFFFFF.png"
   inkscape:export-xdpi="96"
   inkscape:export-ydpi="96"
   xmlns:inkscape="http://www.inkscape.org/namespaces/inkscape"
   xmlns:sodipodi="http://sodipodi.sourceforge.net/DTD/sodipodi-0.dtd"
   xmlns="http://www.w3.org/2000/svg"
   xmlns:svg="http://www.w3.org/2000/svg"><sodipodi:namedview
     id="namedview7"
     pagecolor="#fcf0f3"
     bordercolor="#111111"
     borderopacity="1"
     inkscape:showpageshadow="0"
     inkscape:pageopacity="0"
     inkscape:pagecheckerboard="1"
     inkscape:deskcolor="#d1d1d1"
     inkscape:document-units="px"
     showgrid="false"
     inkscape:zoom="8.0000004"
     inkscape:cx="10.6875"
     inkscape:cy="33.062499"
     inkscape:window-width="1856"
     inkscape:window-height="897"
     inkscape:window-x="54"
     inkscape:window-y="-8"
     inkscape:window-maximized="1"
     inkscape:current-layer="svg5"
     showguides="true" /><defs
     id="defs2"><linearGradient
       id="linearGradient870"
       inkscape:swatch="solid"><stop
         style="stop-color:#aca8ab;stop-opacity:1;"
         offset="0"
         id="stop868" /></linearGradient><inkscape:perspective
       sodipodi:type="inkscape:persp3d"
       inkscape:vp_x="-0.31627442 : 12.964582 : 1"
       inkscape:vp_y="0 : 999.99998 : 0"
       inkscape:vp_z="9.5816598 : 12.964582 : 1"
       inkscape:persp3d-origin="4.6326927 : 11.641666 : 1"
       id="perspective490" /><inkscape:path-effect
       effect="fillet_chamfer"
       id="path-effect1968"
       is_visible="true"
       lpeversion="1"
       nodesatellites_param="F,0,0,1,0,0.5,0,1 @ F,0,0,1,0,0.5,0,1 @ F,0,0,1,0,0.5,0,1 @ F,0,0,1,0,0.5,0,1"
       unit="px"
       method="auto"
       mode="F"
       radius="0.5"
       chamfer_steps="1"
       flexible="false"
       use_knot_distance="true"
       apply_no_radius="true"
       apply_with_radius="true"
       only_selected="false"
       hide_knots="false" /><clipPath
       clipPathUnits="userSpaceOnUse"
       id="clipPath1906"><g
         inkscape:label="Clip"
         id="use1908"><rect
           style="fill:none;fill-opacity:1;stroke:#ff0000;stroke-width:0.529167;stroke-linecap:square;stroke-linejoin:round;stroke-dasharray:none;stroke-opacity:1;paint-order:stroke fill markers"
           id="rect1910"
           width="6.3025494"
           height="6.1037674"
           x="0.83020592"
           y="1.5434815" /></g></clipPath></defs><g
     id="g1"
     inkscape:label="ddbb"
     transform="translate(0.52916664,0.52916616)"><path
       id="path6118"
       style="fill:#ffffff;fill-opacity:1;stroke:#000000;stroke-width:0;stroke-linecap:round;stroke-dasharray:none;stroke-opacity:1;paint-order:stroke fill markers"
       d="m 0,10.583333 v 1.5875 V 12.7 14.2875 A 7.9374986,1.5874989 0 0 0 7.9374996,15.875 7.9374986,1.5874989 0 0 0 15.874999,14.2875 V 12.7 v -0.529167 -1.5875 a 7.9374986,1.5874988 0 0 1 -3.968749,1.374593 7.9374986,1.5874988 0 0 1 -7.9375002,0 A 7.9374986,1.5874988 0 0 1 0,10.583333 Z"
       inkscape:export-filename="..\2. png\ddbb-36x30-l3-3-nb-FFFFFF-1C2030.png"
       inkscape:export-xdpi="96"
       inkscape:export-ydpi="96"
       inkscape:label="stack-3" /><path
       id="path6116"
       style="fill:#ffffff;fill-opacity:1;stroke:#000000;stroke-width:0;stroke-linecap:round;stroke-dasharray:none;stroke-opacity:1;paint-order:stroke fill markers"
       d="m 0,6.3499998 v 1.5874999 0.5291664 1.5874999 a 7.9374986,1.5874989 0 0 0 7.9374996,1.587499 7.9374986,1.5874989 0 0 0 7.9374994,-1.587499 v -1.5874998 -0.5291664 -1.5875 a 7.9374986,1.5874988 0 0 1 -3.968749,1.374593 7.9374986,1.5874988 0 0 1 -7.9375002,0 A 7.9374986,1.5874988 0 0 1 0,6.3499998 Z"
       inkscape:export-filename="..\2. png\ddbb-36x30-l2-3-nb-FFFFFF-1C2030.png"
       inkscape:export-xdpi="96"
       inkscape:export-ydpi="96"
       inkscape:label="stack-2" /><path
       id="rect4489"
       style="fill:#ffffff;fill-opacity:1;stroke:#000000;stroke-width:0;stroke-linecap:round;stroke-dasharray:none;stroke-opacity:1;paint-order:stroke fill markers"
       d="m 0,2.1166666 v 1.5875 0.5291666 1.5875001 A 7.9374986,1.5874989 0 0 0 7.9374997,7.4083331 7.9374986,1.5874989 0 0 0 15.875,5.8208333 v -1.5875001 -0.5291666 -1.5875 a 7.9374986,1.5874988 0 0 1 -3.96875,1.374593 7.9374986,1.5874988 0 0 1 -7.9375,0 A 7.9374986,1.5874988 0 0 1 0,2.1166666 Z"
       inkscape:export-filename="..\png\ddbb-36x30-nb-ACA8AB.png"
       inkscape:export-xdpi="96"
       inkscape:export-ydpi="96"
       inkscape:label="stack-1" /><ellipse
       style="fill:#ffffff;fill-opacity:1;stroke:#000000;stroke-width:0;stroke-linecap:round;stroke-dasharray:none;stroke-opacity:1;paint-order:stroke fill markers"
       id="path3707"
       cx="7.9374995"
       cy="1.5875005"
       rx="7.9374995"
       ry="1.5875"
       inkscape:export-filename="..\2. png\ddbb-36x30-l1-3-nb-1C2030-FFFFFF.png"
       inkscape:export-xdpi="96"
       inkscape:export-ydpi="96"
       inkscape:label="cover" /><g
       inkscape:groupmode="layer"
       id="layer1"
       inkscape:label="ddbb" /></g></svg>
